<?xml version="1.0" encoding="UTF-8" standalone="no"?>
<!-- Created with Inkscape (http://www.inkscape.org/) -->

<svg
   xmlns:dc="http://purl.org/dc/elements/1.1/"
   xmlns:cc="http://creativecommons.org/ns#"
   xmlns:rdf="http://www.w3.org/1999/02/22-rdf-syntax-ns#"
   xmlns:svg="http://www.w3.org/2000/svg"
   xmlns="http://www.w3.org/2000/svg"
   xmlns:sodipodi="http://sodipodi.sourceforge.net/DTD/sodipodi-0.dtd"
   xmlns:inkscape="http://www.inkscape.org/namespaces/inkscape"
   width="64"
   height="128"
   id="svg2"
   version="1.1"
   inkscape:version="0.48.4 r9939"
   sodipodi:docname="icons.svg">
  <defs
     id="defs4">
    <filter
       inkscape:collect="always"
       id="filter4279"
       x="-0.038130689"
       width="1.0762614"
       y="-0.1406917"
       height="1.2813834"
       color-interpolation-filters="sRGB">
      <feGaussianBlur
         inkscape:collect="always"
         stdDeviation="1.3952756"
         id="feGaussianBlur4281" />
    </filter>
    <filter
       inkscape:collect="always"
       id="filter4347"
       x="-0.029016595"
       width="1.0580332"
       y="-0.13881889"
       height="1.2776378"
       color-interpolation-filters="sRGB">
      <feGaussianBlur
         inkscape:collect="always"
         stdDeviation="0.49644932"
         id="feGaussianBlur4349" />
    </filter>
    <filter
       inkscape:collect="always"
       id="filter6234">
      <feGaussianBlur
         inkscape:collect="always"
         stdDeviation="0.0528125"
         id="feGaussianBlur6236" />
    </filter>
  </defs>
  <sodipodi:namedview
     id="base"
     pagecolor="#ffffff"
     bordercolor="#666666"
     borderopacity="1.0"
     inkscape:pageopacity="0.0"
     inkscape:pageshadow="2"
     inkscape:zoom="15.447704"
     inkscape:cx="40"
     inkscape:cy="93.178758"
     inkscape:document-units="px"
     inkscape:current-layer="layer1"
     showgrid="false"
     inkscape:window-width="1317"
     inkscape:window-height="744"
     inkscape:window-x="49"
     inkscape:window-y="24"
     inkscape:window-maximized="1"
     showguides="true"
     inkscape:guide-bbox="true" />
  <metadata
     id="metadata7">
    <rdf:RDF>
      <cc:Work
         rdf:about="">
        <dc:format>image/svg+xml</dc:format>
        <dc:type
           rdf:resource="http://purl.org/dc/dcmitype/StillImage" />
        <dc:title />
      </cc:Work>
    </rdf:RDF>
  </metadata>
  <g
     inkscape:groupmode="layer"
     id="layer2"
     inkscape:label="tiles"
     style="display:none"
     transform="translate(0,-128)">
    <rect
       transform="scale(-1,1)"
       style="fill:#ff2a2a;fill-opacity:1;stroke:none"
       id="rect4314"
       width="16"
       height="16"
       x="-64"
       y="192" />
    <rect
       y="208"
       x="48"
       height="16"
       width="16"
       id="rect4312"
       style="fill:#00ff00;fill-opacity:1;stroke:none" />
    <rect
       transform="scale(-1,1)"
       y="192"
       x="-48"
       height="16"
       width="16"
       id="rect4316"
       style="fill:#00ff00;fill-opacity:1;stroke:none" />
    <rect
       style="fill:#ff2a2a;fill-opacity:1;stroke:none"
       id="rect4310"
       width="16"
       height="16"
       x="32"
       y="208" />
    <rect
       style="fill:#ff2a2a;fill-opacity:1;stroke:none"
       id="rect4290"
       width="16"
       height="16"
       x="0"
       y="240" />
    <rect
       y="240"
       x="16"
       height="16"
       width="16"
       id="rect4292"
       style="fill:#00ff00;fill-opacity:1;stroke:none" />
    <rect
       y="240"
       x="32"
       height="16"
       width="16"
       id="rect4294"
       style="fill:#ff2a2a;fill-opacity:1;stroke:none" />
    <rect
       style="fill:#00ff00;fill-opacity:1;stroke:none"
       id="rect4296"
       width="16"
       height="16"
       x="48"
       y="240" />
    <rect
       y="224"
       x="-16"
       height="16"
       width="16"
       id="rect4304"
       style="fill:#00ff00;fill-opacity:1;stroke:none"
       transform="scale(-1,1)" />
    <rect
       y="208"
       x="0"
       height="16"
       width="16"
       id="rect4306"
       style="fill:#ff2a2a;fill-opacity:1;stroke:none" />
    <rect
       transform="scale(-1,1)"
       style="fill:#00ff00;fill-opacity:1;stroke:none"
       id="rect4320"
       width="16"
       height="16"
       x="-16"
       y="192" />
    <rect
       style="fill:#ff2a2a;fill-opacity:1;stroke:none"
       id="rect4302"
       width="16"
       height="16"
       x="-32"
       y="224"
       transform="scale(-1,1)" />
    <rect
       style="fill:#00ff00;fill-opacity:1;stroke:none"
       id="rect4308"
       width="16"
       height="16"
       x="16"
       y="208" />
    <rect
       transform="scale(-1,1)"
       y="192"
       x="-32"
       height="16"
       width="16"
       id="rect4318"
       style="fill:#ff2a2a;fill-opacity:1;stroke:none" />
    <rect
       y="224"
       x="-64"
       height="16"
       width="16"
       id="rect4298"
       style="fill:#ff2a2a;fill-opacity:1;stroke:none"
       transform="scale(-1,1)" />
    <rect
       style="fill:#00ff00;fill-opacity:1;stroke:none"
       id="rect4300"
       width="16"
       height="16"
       x="-48"
       y="224"
       transform="scale(-1,1)" />
    <rect
       y="128"
       x="-64"
       height="16"
       width="16"
       id="rect5075"
       style="fill:#ff2a2a;fill-opacity:1;stroke:none"
       transform="scale(-1,1)" />
    <rect
       style="fill:#00ff00;fill-opacity:1;stroke:none"
       id="rect5077"
       width="16"
       height="16"
       x="48"
       y="144" />
    <rect
       y="144"
       x="32"
       height="16"
       width="16"
       id="rect5081"
       style="fill:#ff2a2a;fill-opacity:1;stroke:none" />
    <rect
       y="176"
       x="0"
       height="16"
       width="16"
       id="rect5083"
       style="fill:#ff2a2a;fill-opacity:1;stroke:none" />
    <rect
       style="fill:#00ff00;fill-opacity:1;stroke:none"
       id="rect5085"
       width="16"
       height="16"
       x="16"
       y="176" />
    <rect
       style="fill:#ff2a2a;fill-opacity:1;stroke:none"
       id="rect5087"
       width="16"
       height="16"
       x="32"
       y="176" />
    <rect
       y="176"
       x="48"
       height="16"
       width="16"
       id="rect5089"
       style="fill:#00ff00;fill-opacity:1;stroke:none" />
    <rect
       transform="scale(-1,1)"
       style="fill:#00ff00;fill-opacity:1;stroke:none"
       id="rect5091"
       width="16"
       height="16"
       x="-16"
       y="160" />
    <rect
       style="fill:#ff2a2a;fill-opacity:1;stroke:none"
       id="rect5093"
       width="16"
       height="16"
       x="0"
       y="144" />
    <rect
       y="128"
       x="-16"
       height="16"
       width="16"
       id="rect5095"
       style="fill:#00ff00;fill-opacity:1;stroke:none"
       transform="scale(-1,1)" />
    <rect
       transform="scale(-1,1)"
       y="160"
       x="-32"
       height="16"
       width="16"
       id="rect5097"
       style="fill:#ff2a2a;fill-opacity:1;stroke:none" />
    <rect
       y="144"
       x="16"
       height="16"
       width="16"
       id="rect5099"
       style="fill:#00ff00;fill-opacity:1;stroke:none" />
    <rect
       transform="scale(-1,1)"
       style="fill:#ff2a2a;fill-opacity:1;stroke:none"
       id="rect5103"
       width="16"
       height="16"
       x="-64"
       y="160" />
    <rect
       transform="scale(-1,1)"
       y="160"
       x="-48"
       height="16"
       width="16"
       id="rect5105"
       style="fill:#00ff00;fill-opacity:1;stroke:none" />
    <rect
       style="fill:#00ff00;fill-opacity:1;stroke:none;display:inline"
       id="rect5079"
       width="16"
       height="16"
       x="-48"
       y="924.36218"
       transform="matrix(-1,0,0,1,0,-796.36218)" />
    <rect
       style="fill:#ff2a2a;fill-opacity:1;stroke:none;display:inline"
       id="rect5101"
       width="16"
       height="16"
       x="-32"
       y="924.36218"
       transform="matrix(-1,0,0,1,0,-796.36218)" />
  </g>
  <g
     inkscape:label="icons"
     inkscape:groupmode="layer"
     id="layer1"
     transform="translate(0,-924.36218)"
     style="display:inline">
    <path
       style="fill:#000000;fill-opacity:1;stroke:#000000;stroke-width:0.99999988;stroke-linejoin:round;stroke-miterlimit:4;stroke-opacity:1;stroke-dasharray:none;stroke-dashoffset:0"
       d="m 8.252678,1005.9155 0,9.176 c -0.702256,-0.2005 -1.628365,-0.1066 -2.52357,0.3171 -1.5034305,0.7117 -2.3473165,2.084 -1.882768,3.0653 0.464548,0.9813 2.06392,1.2006 3.56735,0.4889 1.3657995,-0.6466 2.178242,-1.8393 1.968649,-2.7878 l 0.039635,0 0,-10.2595 -1.169298,0 z"
       id="rect3088"
       inkscape:connector-curvature="0" />
    <path
       inkscape:connector-curvature="0"
       id="path3098"
       d="m 24.417895,1005.6702 0,9.5104 c -0.727847,-0.2078 -1.687704,-0.1106 -2.61553,0.3286 -1.558215,0.7377 -2.432851,2.1599 -1.951376,3.177 0.481477,1.0171 2.139128,1.2443 3.697344,0.5067 1.415569,-0.6701 2.257614,-1.9063 2.040389,-2.8894 l 0.04107,0 0,-9.301 3.048773,2.3605 0,-1.0539 c -0.191075,-0.1786 -3.048773,-2.6389 -3.048773,-2.6389 z"
       style="fill:#000000;fill-opacity:1;stroke:#000000;stroke-width:0.99999988;stroke-linejoin:round;stroke-miterlimit:4;stroke-opacity:1;stroke-dasharray:none;stroke-dashoffset:0"
       sodipodi:nodetypes="ccsssccccccc" />
    <path
       style="fill:#000000;fill-opacity:1;stroke:#000000;stroke-width:1;stroke-linejoin:round;stroke-miterlimit:4;stroke-opacity:1;stroke-dashoffset:0"
       d="m 7.999773,977.1109 4.872627,6.5027 -4.872627,-2.2644 -4.8726271,2.2644 z"
       id="rect3126"
       inkscape:connector-curvature="0"
       sodipodi:nodetypes="ccccc" />
    <path
       sodipodi:nodetypes="ccccc"
       inkscape:connector-curvature="0"
       id="path3129"
       d="m 23.999772,983.6141 4.873493,-6.5038 -4.873493,2.2647 -4.87349,-2.2647 z"
       style="fill:#000000;fill-opacity:1;stroke:#000000;stroke-width:0.9999997;stroke-linejoin:round;stroke-miterlimit:4;stroke-opacity:1;stroke-dashoffset:0" />
    <g
       id="g3135"
       transform="matrix(0.09381246,0,0,0.12220637,57.60641,871.28738)">
      <rect
         y="847.92432"
         x="-234.71759"
         height="89.243805"
         width="36.077282"
         id="rect3131"
         style="fill:#000000;fill-opacity:1;stroke:#000000;stroke-width:9.33948231;stroke-linejoin:round;stroke-miterlimit:4;stroke-opacity:1;stroke-dasharray:none;stroke-dashoffset:0" />
      <rect
         style="fill:#000000;fill-opacity:1;stroke:#000000;stroke-width:9.33948231;stroke-linejoin:round;stroke-miterlimit:4;stroke-opacity:1;stroke-dasharray:none;stroke-dashoffset:0"
         id="rect3133"
         width="36.077282"
         height="89.243805"
         x="-176.71759"
         y="847.92432" />
    </g>
    <g
       id="g3954"
       transform="matrix(0.19317391,0,0,0.19317391,31.541896,804.09793)">
      <path
         id="rect3877"
         transform="translate(0,860.36218)"
         d="m -123.4375,99.21875 -20,70.40625 51.4375,0 -20,-70.40625 -11.4375,0 z m 0.25,5.25 0,50.15625 -12.59375,0 12.59375,-50.15625 z m 10.96875,0.125 12.59375,50.03125 -12.59375,0 0,-50.03125 z"
         style="fill:#000000;fill-opacity:1;stroke:none"
         inkscape:connector-curvature="0" />
      <path
         sodipodi:nodetypes="cccc"
         inkscape:connector-curvature="0"
         id="rect3885"
         d="m -151.21872,957.8809 c 4.25251,-2.23559 30.95872,49.4447 35.42931,57.1764 l -3.5509,2.0532 c -3.12953,-8.1739 -36.9592,-56.29181 -31.87841,-59.2296 z"
         style="fill:#b3b3b3;fill-opacity:1;stroke:none" />
      <path
         sodipodi:nodetypes="ccccc"
         inkscape:connector-curvature="0"
         id="rect3901"
         d="m -150.13159,972.84995 11.3438,-6.55916 4.94899,12.55459 -7.88099,4.55692 z"
         style="fill:#000000;fill-opacity:1;stroke:none" />
      <path
         sodipodi:nodetypes="ccccc"
         inkscape:connector-curvature="0"
         id="rect3931"
         d="m -128.42703,1016.4376 c 6.79025,-6.7979 13.9704,-5.9927 21.41657,0 l 0,9.7182 -21.41657,0 z"
         style="fill:#000000;fill-opacity:1;stroke:none" />
      <path
         inkscape:connector-curvature="0"
         id="rect3934"
         d="m -121.71875,969.83213 8,0 0,2 -8,0 z"
         style="fill:#b3b3b3;fill-opacity:1;stroke:none" />
      <path
         style="fill:#b3b3b3;fill-opacity:1;stroke:none"
         d="m -121.71875,977.83213 8,0 0,2 -8,0 z"
         id="path3937"
         inkscape:connector-curvature="0" />
      <path
         inkscape:connector-curvature="0"
         id="path3939"
         d="m -121.71875,985.83213 8,0 0,2 -8,0 z"
         style="fill:#b3b3b3;fill-opacity:1;stroke:none" />
      <path
         style="fill:#b3b3b3;fill-opacity:1;stroke:none"
         d="m -121.71875,993.83213 8,0 0,2 -8,0 z"
         id="path3941"
         inkscape:connector-curvature="0" />
      <path
         inkscape:connector-curvature="0"
         id="path3943"
         d="m -121.71875,1001.8321 8,0 0,2 -8,0 z"
         style="fill:#b3b3b3;fill-opacity:1;stroke:none" />
      <g
         transform="translate(1.318825,-4)"
         id="g3950">
        <path
           style="fill:#000000;fill-opacity:1;stroke:none"
           d="m -140.73823,1031.2936 6.74195,0 0,5.4779 -6.74195,0 z"
           id="rect3945"
           inkscape:connector-curvature="0" />
        <path
           inkscape:connector-curvature="0"
           id="path3948"
           d="m -104.07887,1031.2936 6.74195,0 0,5.4779 -6.74195,0 z"
           style="fill:#000000;fill-opacity:1;stroke:none" />
      </g>
    </g>
    <path
       style="fill:#000000;fill-opacity:1;stroke:none"
       d="m 27.477056,990.7017 c -1.669771,-0.076 -3.981732,5.6022 -3.981732,5.6022 0,0 -1.486943,4.8255 -2.97238,4.8255 -1.485432,0 -2.793615,-4.8255 -2.793615,-4.8255 l -0.683435,0 c 0,0 1.833417,5.6844 3.47705,5.7191 1.643638,0.035 3.764518,-5.6022 3.764518,-5.6022 0,0 1.678329,-4.8669 3.189595,-4.8255 1.51126,0.041 2.793615,4.8255 2.793615,4.8255 l 0.683435,0 c 0,0 -1.807286,-5.6435 -3.47705,-5.7191 z"
       id="path3986"
       inkscape:connector-curvature="0"
       sodipodi:nodetypes="zczcczczccz" />
    <text
       xml:space="preserve"
       style="font-size:1.54924631px;font-style:normal;font-weight:normal;line-height:125%;letter-spacing:0px;word-spacing:0px;fill:#000000;fill-opacity:1;stroke:none;font-family:Sans"
       x="32.272682"
       y="999.75037"
       id="text3996"
       sodipodi:linespacing="125%"><tspan
         sodipodi:role="line"
         id="tspan3998"
         x="32.272682"
         y="999.75037"
         style="font-size:9.29547882px;font-style:italic;font-weight:bold;-inkscape-font-specification:Sans Bold Italic">FX</tspan></text>
    <g
       id="g4026"
       transform="matrix(0.07653061,0,0,0.07812495,66.18038,917.14829)">
      <rect
         y="917.93835"
         x="-163.02361"
         height="60"
         width="60"
         id="rect4000"
         style="fill:#000000;fill-opacity:1;stroke:none" />
      <rect
         style="fill:#000000;fill-opacity:1;stroke:none"
         id="rect4002"
         width="60"
         height="60"
         x="-163.02361"
         y="983.93835" />
      <rect
         y="1049.9385"
         x="-163.02361"
         height="60"
         width="60"
         id="rect4006"
         style="fill:#000000;fill-opacity:1;stroke:none" />
      <rect
         style="fill:#000000;fill-opacity:1;stroke:none"
         id="rect4008"
         width="60"
         height="60"
         x="-231.02361"
         y="917.93835" />
      <rect
         y="983.93835"
         x="-231.02361"
         height="60"
         width="60"
         id="rect4010"
         style="fill:#000000;fill-opacity:1;stroke:none" />
      <rect
         style="fill:#000000;fill-opacity:1;stroke:none"
         id="rect4012"
         width="60"
         height="60"
         x="-231.02361"
         y="1049.9385" />
      <rect
         style="fill:#000000;fill-opacity:1;stroke:none"
         id="rect4014"
         width="60"
         height="60"
         x="-95.023613"
         y="917.93835" />
      <rect
         y="983.93835"
         x="-95.023613"
         height="60"
         width="60"
         id="rect4016"
         style="fill:#000000;fill-opacity:1;stroke:none" />
      <rect
         style="fill:#000000;fill-opacity:1;stroke:none"
         id="rect4018"
         width="60"
         height="60"
         x="-95.023613"
         y="1049.9385" />
    </g>
    <path
       sodipodi:nodetypes="ccsssccccccccccc"
       style="fill:#000000;fill-opacity:1;stroke:#000000;stroke-width:0.99999988;stroke-linejoin:round;stroke-miterlimit:4;stroke-opacity:1;stroke-dasharray:none;stroke-dashoffset:0"
       d="m 40.417895,1005.4248 0,9.5104 c -0.727847,-0.2078 -1.687704,-0.1105 -2.61553,0.3287 -1.558215,0.7376 -2.432851,2.1599 -1.951375,3.177 0.481476,1.0171 2.139127,1.2443 3.697343,0.5066 1.41557,-0.6701 2.257615,-1.9063 2.04039,-2.8894 l 0.04107,0 0,-7.739 3.057996,2.4658 0,-0.5813 -3.057996,-2.5272 0,-0.9193 3.086682,2.5627 0,-1.256 c -0.191075,-0.1786 -3.086682,-2.639 -3.086682,-2.639 z"
       id="path4395"
       inkscape:connector-curvature="0" />
    <g
       id="g4409"
       transform="matrix(0.46875,0,0,0.46875,81.063475,564.6387)">
      <path
         id="path4401"
         transform="translate(0,860.36218)"
         d="m -53.46875,78.78125 c -8.836556,0 -16,7.16345 -16,16 0,8.83656 7.163444,16 16,16 8.836555,0 16,-7.16344 16,-16 0,-8.83655 -7.163445,-16 -16,-16 z m 0,3 c 7.1797,0 13,5.82029 13,13 0,7.1797 -5.8203,13 -13,13 -7.179701,0 -13,-5.8203 -13,-13 0,-7.17971 5.820299,-13 13,-13 z"
         style="fill:#000000;fill-opacity:1;stroke:none"
         inkscape:connector-curvature="0" />
      <path
         inkscape:connector-curvature="0"
         style="fill:#000000;fill-opacity:1;stroke:none"
         d="m -47.46875,955.14343 c 0,3.31371 -2.686292,6 -6,6 -3.313707,0 -6,-2.68629 -6,-6 0,-3.31371 2.686293,-6 6,-6 3.313708,0 6,2.68629 6,6 z"
         id="path4404" />
    </g>
    <g
       id="g5557"
       transform="matrix(0.65224476,0,0,0.65224476,52.638483,307.50757)">
      <path
         style="fill:#000000;fill-opacity:1;stroke:none"
         d="m -45.650292,976.56111 c 0,0 0.468938,-0.81689 0.871363,-1 0.528746,-0.24059 1.213978,-0.24059 1.742724,0 0.402425,0.18311 0.871362,1 0.871362,1 l 9.742725,3.14711 0.0053,0.2833 -22.939421,-0.009 -0.03674,-0.27472 z"
         id="path5547"
         inkscape:connector-curvature="0"
         sodipodi:nodetypes="caacccccc" />
      <path
         sodipodi:nodetypes="ccccccccccc"
         inkscape:connector-curvature="0"
         id="path5549"
         d="m -45.650292,983.80194 c 0.297249,0.13808 0.798237,0.11736 0.806887,0.74063 l 0,6.16803 1.860908,-0.0704 0,-6.15922 c -0.109799,-0.33062 0.21601,-0.54245 0.817654,-0.67904 l 9.742725,-1.83391 0.01689,-0.20604 c -3.828483,0 -19.176204,0 -23.004687,0 l 0.01689,0.20604 z"
         style="fill:#000000;fill-opacity:1;stroke:none" />
    </g>
    <g
       id="g5561"
       transform="matrix(0.65224476,0,0,0.65224476,56.594229,308.6479)">
      <path
         sodipodi:nodetypes="caacccccc"
         inkscape:connector-curvature="0"
         id="path5553"
         d="m -76.24578,976.46401 c 0,0 0.468938,-0.81689 0.871363,-1 0.528746,-0.24059 1.213978,-0.24059 1.742724,0 0.402425,0.18311 0.871362,1 0.871362,1 l 9.742725,3.14711 0.0053,0.2833 -22.939421,-0.009 -0.03674,-0.27472 z"
         style="fill:#000000;fill-opacity:1;stroke:none" />
      <path
         style="fill:#000000;fill-opacity:1;stroke:none"
         d="m -76.24578,982.05363 c 0.297249,0.13808 0.798237,0.11736 0.806887,0.74063 l 0,6.16803 1.860908,-0.0704 0,-6.15922 c -0.109799,-0.33062 0.21601,-0.54245 0.817654,-0.67904 l 9.742725,-1.83391 0.01689,-0.20604 c -3.828483,0 -19.176204,0 -23.004687,0 l 0.01689,0.20604 z"
         id="path5555"
         inkscape:connector-curvature="0"
         sodipodi:nodetypes="ccccccccccc" />
    </g>
    <g
       id="g4059"
       transform="matrix(1.0698629,0,0,1.0698629,-2.9278402,-65.887308)">
      <path
         sodipodi:nodetypes="caacccccc"
         inkscape:connector-curvature="0"
         id="path5573"
         d="m 38.333643,945.10588 c 0,0 0.06646,-0.61076 0.258995,-0.82545 0.252972,-0.28207 0.662381,-0.46134 1.041235,-0.45594 0.288336,0.004 0.782242,0.36952 0.782242,0.36952 l 6.532207,-0.92479 0.07728,0.16788 -13.708158,5.99594 -0.09381,-0.15452 z"
         style="fill:#000000;fill-opacity:1;stroke:none" />
      <path
         style="fill:#000000;fill-opacity:1;stroke:none"
         d="m 39.148759,945.71508 c 0,0 -0.09403,1.39974 0,1.77781 0,0 0.04108,0.14288 0.08423,0.21666 0.04315,0.0738 0.177979,0.21666 0.177979,0.21666 0.253744,1.02018 0,5.80907 0,5.80907 l 0.689352,0 c 0,0 -0.253744,-4.78889 0,-5.80907 0,0 0.134825,-0.14288 0.177979,-0.21666 0.04315,-0.0738 0.08423,-0.21666 0.08423,-0.21666 0.09403,-0.37807 0,-1.77781 0,-1.77781 -0.404589,0 -0.809179,0 -1.213768,0 z"
         id="path5575"
         inkscape:connector-curvature="0"
         sodipodi:nodetypes="cczcccczccc" />
    </g>
    <path
       style="fill:#000000;fill-opacity:1;stroke:none"
       d="m 58.942563,941.58776 c 0.332038,-0.36157 0.879028,-0.91224 1.296494,-0.66286 0.417467,0.24939 0.230043,1.01484 0.09342,1.49318 -0.160804,0.56295 -0.695583,0.83687 -1.01562,1.41325 l -3.0867,5.53168 c -0.06122,0.1686 -0.12246,0.3372 -0.183691,0.5058 l -3.344296,5.99337 c -0.349788,-0.20895 -0.847385,-0.5062 -1.19717,-0.71516 l 3.344296,-5.99336 c 0.110505,-0.13916 0.221,-0.27832 0.3315,-0.4175 l 3.086699,-5.5317 c 0.321223,-0.5757 0.284273,-1.19111 0.675072,-1.6167 z"
       id="rect5597"
       inkscape:connector-curvature="0"
       sodipodi:nodetypes="aaasccccccsa" />
    <g
       id="g5629"
       transform="matrix(1.351361,0,0,1.351361,39.24394,-339.37938)">
      <path
         sodipodi:nodetypes="ssscccsccscccccccsssssss"
         inkscape:connector-curvature="0"
         id="rect5608"
         transform="translate(0,924.36218)"
         d="m -27.875,14.75 c -0.306615,0 -0.638166,0.214508 -0.75,0.5 -0.141809,0.362015 0.28125,0.792171 0.28125,1.125 l 0,0.46875 0,1.6875 0,3.03125 c 0,0 -0.224015,0.103561 -0.3125,0.1875 -0.0584,0.0554 -0.15625,0.1875 -0.15625,0.1875 l 1.84375,0 c 0,0 -0.07042,-0.131958 -0.125,-0.1875 -0.08274,-0.0842 -0.28125,-0.1875 -0.28125,-0.1875 -0.815309,-5.004791 5.38632,-0.604605 8.125,0.375 l 1.21875,0 c 0.829996,-0.140697 0.605582,-0.179355 0.46875,-0.84375 l -1.75,-0.25 -8.0625,-3.46875 0,-1.0625 c 0,0 0.412548,-0.719873 0.28125,-1.0625 -0.109718,-0.286312 -0.474635,-0.5 -0.78125,-0.5 z m 0,0.34375 c 0.236447,0 0.4375,0.201053 0.4375,0.4375 0,0.236447 -0.201053,0.4375 -0.4375,0.4375 -0.236447,0 -0.40625,-0.201053 -0.40625,-0.4375 0,-0.236447 0.169803,-0.4375 0.40625,-0.4375 z"
         style="fill:#000000;fill-opacity:1;stroke:none" />
      <path
         sodipodi:nodetypes="ccccccccc"
         inkscape:connector-curvature="0"
         id="rect5618"
         d="m -23.608673,935.86428 c -0.561717,0.13921 -0.922365,0.5425 -1.267984,0.96552 l 0.210757,0.54653 -2.941628,2.07298 0.30291,0.3978 2.941628,-2.07298 0.470792,0.34853 c 0.514187,-0.13402 0.915422,-0.49983 1.26799,-0.96554 -0.148675,-0.65517 -0.461634,-1.1051 -0.984465,-1.29284 z"
         style="fill:#000000;fill-opacity:1;stroke:none" />
    </g>
    <g
       id="g6797">
      <path
         style="fill:#000000;fill-opacity:1;stroke:none"
         d="m 46.263822,927.34761 c 0,1.15315 -2.804408,2.08795 -6.263818,2.08795 -3.459414,0 -6.26382,-0.9348 -6.26382,-2.08795 0,-1.15313 2.804406,-2.08793 6.26382,-2.08793 3.45941,0 6.263818,0.9348 6.263818,2.08793 z"
         id="path6296"
         inkscape:connector-curvature="0" />
      <path
         style="fill:#999999;fill-opacity:1;stroke:none"
         d="m 33.736184,927.30335 0,10.07352 c 0,1.15316 2.804405,2.08794 6.263819,2.08794 3.45941,0 6.263819,-0.93478 6.263819,-2.08794 l 0,-10.07352 c 0,1.15316 -2.804409,2.08794 -6.263819,2.08794 -3.459414,0 -6.263819,-0.93478 -6.263819,-2.08794 z"
         id="path6298"
         inkscape:connector-curvature="0"
         sodipodi:nodetypes="cssscsc" />
      <path
         sodipodi:nodetypes="ccccc"
         inkscape:connector-curvature="0"
         id="path6300"
         d="m 44.44175,938.68273 0.73974,-0.29884 1.1e-5,-9.74259 -0.73974,0.29883 z"
         style="fill:#ffffff;fill-opacity:0.40972224;stroke:none" />
      <path
         transform="matrix(1.3919598,0,0,1.3919598,-25.682773,-344.34137)"
         inkscape:connector-curvature="0"
         style="fill:#000000;fill-opacity:1;stroke:none;filter:url(#filter6234)"
         d="m 42.718515,913.62676 c -0.0028,0.0216 -0.03125,0.0407 -0.03125,0.0625 0,0.82844 2.014717,1.5 4.5,1.5 2.48528,0 4.5,-0.67156 4.5,-1.5 0,-0.0218 -0.02848,-0.0409 -0.03125,-0.0625 -0.102432,0.79818 -2.049022,1.4375 -4.46875,1.4375 -2.419731,0 -4.366318,-0.63932 -4.46875,-1.4375 z"
         id="path6302" />
      <path
         style="fill:#ffffff;fill-opacity:0.40972224;stroke:none"
         d="m 34.818504,938.38389 0.73974,0.29884 5e-6,-9.74259 -0.73974,-0.29884 z"
         id="path6304"
         inkscape:connector-curvature="0"
         sodipodi:nodetypes="ccccc" />
      <path
         id="path6306"
         d="m 33.779683,937.28987 c -0.0039,0.0301 -0.0435,0.0567 -0.0435,0.087 0,1.15316 2.804405,2.08794 6.263819,2.08794 3.45941,0 6.263819,-0.93478 6.263819,-2.08794 0,-0.0303 -0.03964,-0.0569 -0.0435,-0.087 -0.142581,1.11104 -2.852156,2.00094 -6.22032,2.00094 -3.368168,0 -6.077739,-0.8899 -6.22032,-2.00094 z"
         style="fill:#000000;fill-opacity:1;stroke:none"
         inkscape:connector-curvature="0" />
      <path
         sodipodi:nodetypes="ccccc"
         inkscape:connector-curvature="0"
         id="path6308"
         d="m 39.39009,939.29426 1.219814,-0.041 1.1e-5,-9.73386 -1.21982,0.041 z"
         style="fill:#ffffff;fill-opacity:0.40972224;stroke:none" />
      <path
         transform="matrix(1.3919598,0,0,1.3919598,-25.682773,-344.34138)"
         id="path6310"
         d="m 42.718515,920.29435 c -0.0028,0.0216 -0.03125,0.0407 -0.03125,0.0625 0,0.82844 2.014717,1.5 4.5,1.5 2.48528,0 4.5,-0.67156 4.5,-1.5 0,-0.0218 -0.02848,-0.0409 -0.03125,-0.0625 -0.102432,0.79818 -2.049022,1.4375 -4.46875,1.4375 -2.419731,0 -4.366318,-0.63932 -4.46875,-1.4375 z"
         style="fill:#000000;fill-opacity:1;stroke:none;filter:url(#filter6234)"
         inkscape:connector-curvature="0" />
      <path
         transform="matrix(1.3919598,0,0,1.3919598,-25.682773,-344.34137)"
         inkscape:connector-curvature="0"
         style="fill:#000000;fill-opacity:1;stroke:none;filter:url(#filter6234)"
         d="m 42.718515,914.00824 c -0.0028,0.0216 -0.03125,0.0407 -0.03125,0.0625 0,0.82844 2.014717,1.5 4.5,1.5 2.48528,0 4.5,-0.67156 4.5,-1.5 0,-0.0218 -0.02848,-0.0409 -0.03125,-0.0625 -0.102432,0.79818 -2.049022,1.4375 -4.46875,1.4375 -2.419731,0 -4.366318,-0.63932 -4.46875,-1.4375 z"
         id="path6312" />
      <path
         inkscape:connector-curvature="0"
         id="path6314"
         d="m 45.785019,927.46131 c 0,1.06505 -2.59004,1.92834 -5.785015,1.92834 -3.194978,0 -5.785017,-0.86329 -5.785017,-1.92834 0,-1.06504 2.590039,-1.92832 5.785017,-1.92832 3.194975,0 5.785015,0.86328 5.785015,1.92832 z"
         style="fill:#ffffff;fill-opacity:1;stroke:none" />
      <path
         transform="matrix(1.3919598,0,0,1.3919598,-25.682773,-344.34137)"
         id="path6432"
         d="m 42.718515,917.15129 c -0.0028,0.0216 -0.03125,0.0407 -0.03125,0.0625 0,0.82844 2.014717,1.5 4.5,1.5 2.48528,0 4.5,-0.67156 4.5,-1.5 0,-0.0218 -0.02848,-0.0409 -0.03125,-0.0625 -0.102432,0.79818 -2.049022,1.4375 -4.46875,1.4375 -2.419731,0 -4.366318,-0.63932 -4.46875,-1.4375 z"
         style="fill:#000000;fill-opacity:1;stroke:none;filter:url(#filter6234)"
         inkscape:connector-curvature="0" />
    </g>
    <path
       sodipodi:nodetypes="cccczcccczcccccccczcccczcccczcc"
       inkscape:connector-curvature="0"
       id="path6641"
       d="m 58.421646,925.73733 -2.907185,4.89308 -0.146287,-0.0845 2.472709,-4.42516 c 0,0 -0.218321,-0.54378 -0.45445,-0.6801 -0.236125,-0.1363 -0.816219,-0.0536 -0.816219,-0.0536 l -2.595956,4.354 -0.184797,-0.10666 0.649774,-1.26775 c 0,0 -0.227617,-0.49332 -0.456718,-0.62917 -0.229235,-0.13561 -0.813961,-0.1044 -0.813961,-0.1044 l -2.400945,4.15856 -0.467971,1.9948 -0.449907,2.24989 5.76051,3.32585 2.510675,-2.90159 c 0.732995,-0.86211 1.604271,-2.68105 1.80625,-3.28255 l 2.223099,-3.85052 c 0,0 -0.218325,-0.5438 -0.454449,-0.68011 -0.236131,-0.13632 -0.816224,-0.0539 -0.816224,-0.0539 l -2.284718,3.81495 -0.146289,-0.0845 2.739483,-4.88724 c 0,0 -0.218324,-0.54377 -0.454447,-0.6801 -0.236128,-0.1363 -0.816224,-0.0536 -0.816224,-0.0536 l -2.862725,4.81608 -0.146288,-0.0845 2.783947,-4.96424 c 0,0 -0.218325,-0.54378 -0.454453,-0.68011 -0.236126,-0.1363 -0.816225,-0.0536 -0.816231,-0.0536 z"
       style="fill:#000000;fill-opacity:1;stroke:none"
       inkscape:transform-center-x="-14.676783"
       inkscape:transform-center-y="4.1237831" />
    <g
       id="g6774">
      <path
         inkscape:connector-curvature="0"
         id="path5667"
         d="m 30.445202,930.06677 c 0,1.18655 -2.88562,2.14842 -6.445208,2.14842 -3.559594,0 -6.445211,-0.96187 -6.445211,-2.14842 0,-1.18652 2.885617,-2.14839 6.445211,-2.14839 3.559588,0 6.445208,0.96187 6.445208,2.14839 z"
         style="fill:#000000;fill-opacity:1;stroke:none" />
      <path
         sodipodi:nodetypes="cssscsc"
         inkscape:connector-curvature="0"
         id="rect5676"
         d="m 17.554783,930.02124 0.217572,4.67241 c 0.05333,1.14526 2.788205,2.07589 6.227637,2.07589 3.439428,0 6.17431,-0.93063 6.227638,-2.07589 l 0.217572,-4.67241 c 0,1.18655 -2.885621,2.1484 -6.44521,2.1484 -3.559593,0 -6.445209,-0.96185 -6.445209,-2.1484 z"
         style="fill:#999999;fill-opacity:1;stroke:none" />
      <path
         style="fill:#ffffff;fill-opacity:0.40972224;stroke:none"
         d="m 28.557437,936.17655 0.787018,-0.31795 1.1e-5,-4.63616 -0.787017,0.31795 z"
         id="path6242"
         inkscape:connector-curvature="0"
         sodipodi:nodetypes="ccccc" />
      <path
         transform="matrix(1.4322688,0,0,1.4322688,-61.390317,-381.35839)"
         id="path5686"
         d="m 55.150165,915.65856 c -0.0028,0.0216 -0.03125,0.0407 -0.03125,0.0625 0,0.82844 2.014717,1.5 4.5,1.5 2.48528,0 4.5,-0.67156 4.5,-1.5 0,-0.0218 -0.02848,-0.0409 -0.03125,-0.0625 -0.102432,0.79818 -2.049022,1.4375 -4.46875,1.4375 -2.419731,0 -4.366318,-0.63932 -4.46875,-1.4375 z"
         style="fill:#000000;fill-opacity:1;stroke:none;filter:url(#filter6234)"
         inkscape:connector-curvature="0" />
      <path
         sodipodi:nodetypes="ccccc"
         inkscape:connector-curvature="0"
         id="path6244"
         d="m 18.655517,935.8586 0.787017,0.31795 7e-6,-4.63614 -0.787018,-0.31797 z"
         style="fill:#ffffff;fill-opacity:0.40972224;stroke:none" />
      <path
         transform="matrix(1.4322688,0,0,1.4322688,-61.390317,-381.35839)"
         id="path6248"
         d="m 55.150165,916.04004 c -0.0028,0.0216 -0.03125,0.0407 -0.03125,0.0625 0,0.82844 2.014717,1.5 4.5,1.5 2.48528,0 4.5,-0.67156 4.5,-1.5 0,-0.0218 -0.02848,-0.0409 -0.03125,-0.0625 -0.102432,0.79818 -2.049022,1.4375 -4.46875,1.4375 -2.419731,0 -4.366318,-0.63932 -4.46875,-1.4375 z"
         style="fill:#000000;fill-opacity:1;stroke:none;filter:url(#filter6234)"
         inkscape:connector-curvature="0" />
      <path
         style="fill:#ffffff;fill-opacity:1;stroke:none"
         d="m 30.013877,930.12362 c 0,1.1072 -2.692508,2.00464 -6.013883,2.00464 -3.32138,0 -6.013886,-0.89744 -6.013886,-2.00464 0,-1.10717 2.692506,-2.00461 6.013886,-2.00461 3.321375,0 6.013883,0.89744 6.013883,2.00461 z"
         id="path6274"
         inkscape:connector-curvature="0" />
      <path
         style="fill:#ffffff;fill-opacity:0.40972224;stroke:none"
         d="m 23.350519,936.8058 1.298934,-0.0437 1.1e-5,-4.63615 -1.29894,0.0437 z"
         id="path6246"
         inkscape:connector-curvature="0"
         sodipodi:nodetypes="ccccc" />
      <path
         inkscape:connector-curvature="0"
         style="fill:#000000;fill-opacity:1;stroke:none"
         d="m 17.759216,934.6494 c -0.0039,0.0302 -0.04364,0.0568 -0.04364,0.0873 0,1.15695 2.724824,2.14953 6.284417,2.14953 3.55959,0 6.284418,-0.99258 6.284418,-2.14953 0,-0.0304 -0.03978,-0.0571 -0.04364,-0.0873 -0.14305,1.11468 -2.775074,2.05777 -6.240776,2.05777 -3.465705,0 -6.097724,-0.94309 -6.24078,-2.05777 z"
         id="path5692"
         sodipodi:nodetypes="cssscsc" />
      <path
         transform="matrix(1.4278442,0,0,1.4278442,-61.126527,-377.2917)"
         inkscape:connector-curvature="0"
         style="fill:#000000;fill-opacity:1;stroke:none;filter:url(#filter6234)"
         d="m 55.233778,918.32673 c -0.0027,0.0212 -0.03066,0.0399 -0.03066,0.0613 0,0.81293 1.930519,1.50058 4.415802,1.50058 2.48528,0 4.415802,-0.68765 4.415802,-1.50058 0,-0.0214 -0.02795,-0.0401 -0.03066,-0.0613 -0.100516,0.78325 -1.965409,1.43692 -4.385137,1.43692 -2.419731,0 -4.284621,-0.65367 -4.385137,-1.43692 z"
         id="path6238"
         sodipodi:nodetypes="cssscsc" />
    </g>
    <text
       transform="translate(0,796.36218)"
       sodipodi:linespacing="125%"
       id="text6654"
       y="174.10303"
       x="16.621592"
       style="display:inline;font-size:4.78384828999999989px;font-style:normal;font-weight:normal;line-height:125%;letter-spacing:0px;word-spacing:0px;fill:#000000;fill-opacity:1;stroke:none;font-family:Sans"
       xml:space="preserve"><tspan
         style="font-size:16.74346924px;font-style:italic;font-variant:normal;font-weight:bold;font-stretch:normal;font-family:Saab;-inkscape-font-specification:Saab Bold Italic"
         y="174.10303"
         x="16.621592"
         id="tspan6656"
         sodipodi:role="line">B</tspan></text>
    <text
       transform="translate(0,796.36218)"
       xml:space="preserve"
       style="display:inline;font-size:4.74778652000000001px;font-style:normal;font-weight:normal;line-height:125%;letter-spacing:0px;word-spacing:0px;fill:#000000;fill-opacity:1;stroke:none;font-family:Sans"
       x="1.5697399"
       y="174.05702"
       id="text6650"
       sodipodi:linespacing="125%"><tspan
         sodipodi:role="line"
         id="tspan6652"
         x="1.5697399"
         y="174.05702"
         style="font-size:16.61725235px;font-style:italic;font-variant:normal;font-weight:bold;font-stretch:normal;font-family:Saab;-inkscape-font-specification:Saab Bold Italic">A</tspan></text>
    <path
       style="fill:#000000;fill-opacity:1;stroke:none"
       d="m 51.597866,974.32642 0.401286,0 8.594965,5.28129 c 0,0 0.750001,0.39986 0.750001,0.75447 0,0.35461 -0.750001,0.75447 -0.750001,0.75447 l -8.594965,5.28129 -0.401286,0 0,-6.03576 z"
       id="rect6756"
       inkscape:connector-curvature="0"
       sodipodi:nodetypes="ccczccccc" />
    <path
       style="fill:#000000;fill-opacity:1;stroke:none"
       d="m 8.7955432,1020.7509 0,1.4835 -0.7955431,-0.023 c -3.7999272,0 -6.880376,3.0805 -6.880376,6.8803 0,3.7993 3.0804488,6.88 6.880376,6.88 3.7999249,0 6.8803769,-3.0807 6.8803769,-6.88 l -2.752154,0 c 0,2.279 -1.848259,4.128 -4.1282229,4.128 -2.2799565,0 -4.1282259,-1.849 -4.1282259,-4.128 0,-2.2809 1.8482694,-4.1283 4.1282259,-4.1283 l 0.7955431,0 0,1.3551 0.1935108,0 3.956216,-2.4295 c 0,0 0.344023,-0.2033 0.344023,-0.3667 0,-0.1633 -0.344023,-0.3436 -0.344023,-0.3436 l -3.956216,-2.4296 -0.1935108,0 z"
       id="path6817"
       inkscape:connector-curvature="0" />
    <text
       xml:space="preserve"
       style="font-size:4.78384829px;font-style:normal;font-weight:normal;line-height:125%;letter-spacing:0px;word-spacing:0px;fill:#000000;fill-opacity:1;stroke:none;display:inline;font-family:Sans"
       x="50.725807"
       y="1050.4203"
       id="text6830"
       sodipodi:linespacing="125%"><tspan
         sodipodi:role="line"
         id="tspan6832"
         x="50.725807"
         y="1050.4203"
         style="font-size:16.74346924px;font-style:italic;font-variant:normal;font-weight:500;font-stretch:normal;font-family:Ubuntu;-inkscape-font-specification:Ubuntu Medium Italic">?</tspan></text>
    <path
       style="fill:#000000;fill-opacity:1;stroke:none"
       d="M 54.6875 33.5625 L 54.6875 35.625 C 54.389238 35.714079 54.113107 35.824133 53.84375 35.96875 L 52.40625 34.53125 L 50.53125 36.40625 L 51.96875 37.84375 C 51.824133 38.113107 51.714079 38.389238 51.625 38.6875 L 49.5625 38.6875 L 49.5625 41.3125 L 51.625 41.3125 C 51.714079 41.610762 51.824133 41.886893 51.96875 42.15625 L 50.53125 43.59375 L 52.40625 45.46875 L 53.84375 44.03125 C 54.113107 44.175867 54.389238 44.285921 54.6875 44.375 L 54.6875 46.4375 L 57.3125 46.4375 L 57.3125 44.375 C 57.610762 44.285921 57.886893 44.175867 58.15625 44.03125 L 59.59375 45.46875 L 61.46875 43.59375 L 60.03125 42.15625 C 60.175867 41.886893 60.285921 41.610762 60.375 41.3125 L 62.4375 41.3125 L 62.4375 38.6875 L 60.375 38.6875 C 60.285921 38.389238 60.175867 38.113107 60.03125 37.84375 L 61.46875 36.40625 L 59.59375 34.53125 L 58.15625 35.96875 C 57.886893 35.824133 57.610762 35.714079 57.3125 35.625 L 57.3125 33.5625 L 54.6875 33.5625 z M 56 38 C 57.10457 38 58 38.89543 58 40 C 58 41.10457 57.10457 42 56 42 C 54.89543 42 54 41.10457 54 40 C 54 39.861929 54.004608 39.723945 54.03125 39.59375 C 54.217742 38.682383 55.033501 38 56 38 z "
       id="path3967"
       transform="translate(0,924.36218)" />
    <g
       id="g4051"
       transform="matrix(0.63779516,0,0,0.63779516,-48.89549,359.67296)">
      <path
         inkscape:connector-curvature="0"
         id="rect4015"
         d="m 139.36375,937.04968 c -0.71158,0 -1.42839,0.0692 -2.125,0.1875 -0.38985,0.0662 -0.80851,0.16918 -1.125,0.40625 -0.32994,0.24714 -0.57441,0.61386 -0.71875,1 -0.27598,0.7384 -0.28722,1.93523 -0.28125,2.5 l -3.34375,0 c -0.78227,0.22189 -1.09215,0.57291 -1.15625,1 l 0,0.9375 17.53125,0 0,-1 c -0.15381,-0.47308 -0.40946,-0.8703 -1.375,-0.9375 l -3.15625,0 c -8.2e-4,-0.56054 -0.0432,-1.76383 -0.3125,-2.5 -0.14213,-0.38859 -0.35896,-0.74848 -0.6875,-1 -0.31399,-0.24037 -0.73515,-0.34005 -1.125,-0.40625 -0.69661,-0.11834 -1.41342,-0.1875 -2.125,-0.1875 z m 0.53125,1.8125 c 0.59397,0.0378 1.02195,0.15404 1.59375,0.21875 l 0.875,2.0625 -6,0 0.875,-2.0625 c 1.29182,-0.21587 2.06228,-0.25654 2.65625,-0.21875 z"
         style="fill:#000000;fill-opacity:1;stroke:none" />
      <path
         sodipodi:nodetypes="ccccccczcczcc"
         inkscape:connector-curvature="0"
         id="rect4019"
         d="m 131.99301,944.27649 1.76988,0 0,13.3157 c 2.46212,0 8.77084,0 11.23296,0 l 0,-13.3157 1.76989,0 0,13.31333 c 0,0 -0.27338,0.85736 -0.58433,1.13114 -0.31095,0.27378 -1.13917,0.41567 -1.13917,0.41567 l -11.24902,0 c 0,0 -0.89302,-0.13721 -1.21588,-0.41567 -0.32286,-0.27846 -0.58433,-1.13114 -0.58433,-1.13114 z"
         style="fill:#000000;fill-opacity:1;stroke:none" />
      <path
         sodipodi:nodetypes="czcczcc"
         inkscape:connector-curvature="0"
         id="rect4024"
         d="m 136.57056,947.30424 c 0,0 0.48215,-0.55339 0.80881,-0.55339 0.32667,0 0.80882,0.55339 0.80882,0.55339 l 0,7.96039 c 0,0 -0.48215,0.55339 -0.80882,0.55339 -0.32666,0 -0.80881,-0.55339 -0.80881,-0.55339 z"
         style="fill:#000000;fill-opacity:1;stroke:none" />
      <path
         style="fill:#000000;fill-opacity:1;stroke:none"
         d="m 140.57056,947.30424 c 0,0 0.48215,-0.55339 0.80881,-0.55339 0.32667,0 0.80882,0.55339 0.80882,0.55339 l 0,7.96039 c 0,0 -0.48215,0.55339 -0.80882,0.55339 -0.32666,0 -0.80881,-0.55339 -0.80881,-0.55339 z"
         id="path4030"
         inkscape:connector-curvature="0"
         sodipodi:nodetypes="czcczcc" />
    </g>
  </g>
  <g
     inkscape:groupmode="layer"
     id="layer3"
     inkscape:label="old_icons"
     style="display:none"
     transform="translate(0,-64)">
    <g
       style="display:inline"
       id="g3886"
       transform="matrix(0.0938165,0,0,0.0938165,6.6154675,0.45432)">
      <path
         sodipodi:nodetypes="ssccss"
         inkscape:connector-curvature="0"
         style="fill:#000000;fill-opacity:1;stroke:none"
         d="m 14.748181,955.06148 c 5.377173,0 9.739468,-5.19557 9.739468,-11.55028 0,-0.79442 -0.06607,-7.58328 -0.19577,-8.33235 l -19.0873971,0 c -0.1296562,0.74907 -0.1957684,7.53793 -0.1957684,8.33235 0,6.35471 4.3623124,11.55028 9.7394675,11.55028 z"
         id="path3880" />
      <rect
         transform="scale(-1,-1)"
         style="fill:#000000;fill-opacity:1;stroke:none"
         id="rect3882"
         width="4.4301682"
         height="33.134579"
         x="-16.963272"
         y="-979.07837" />
      <path
         style="fill:#4d4d4d;fill-opacity:1;stroke:#000000;stroke-width:10.65910053;stroke-linejoin:round;stroke-miterlimit:4;stroke-opacity:1;stroke-dasharray:none;stroke-dashoffset:0"
         d="m 90.768451,921.10681 c 0,7.17888 -34.032176,15.2591 -76.012993,15.2591 -41.980817,0 -76.012993,-8.08022 -76.012993,-15.2591 0,-7.17887 34.032176,-12.9985 76.012993,-12.9985 41.980817,0 76.012993,5.81963 76.012993,12.9985 z"
         id="path3878"
         inkscape:connector-curvature="0"
         sodipodi:nodetypes="sssss" />
      <path
         sodipodi:nodetypes="sssss"
         inkscape:connector-curvature="0"
         id="path3866"
         d="m 90.768451,918.23711 c 0,7.17888 -34.032176,14.1288 -76.012993,14.1288 -41.980817,0 -76.012993,-6.94992 -76.012993,-14.1288 0,-7.17887 34.032176,-14.1288 76.012993,-14.1288 41.980817,0 76.012993,6.94993 76.012993,14.1288 z"
         style="fill:#4d4d4d;fill-opacity:1;stroke:#000000;stroke-width:10.65910053;stroke-linejoin:round;stroke-miterlimit:4;stroke-opacity:1;stroke-dasharray:none;stroke-dashoffset:0" />
      <path
         sodipodi:nodetypes="ccscsccscsccc"
         inkscape:connector-curvature="0"
         id="path3869"
         d="m 13.625,887.23963 0,13 c -1.217613,0.5532 -2.09375,1.93423 -2.09375,3.5625 0,0.0449 -0.0013,0.57424 0,0.8125 -1.7950498,1.29686 -3,3.61843 -3,6.28125 0,0.5072 -1.957812,2.99048 -1.875,3.46875 5.395833,1.33893 10.791667,1.34363 16.1875,0 0.08281,-0.47827 -1.875,-2.96155 -1.875,-3.46875 0,-2.66282 -1.20495,-4.98439 -3,-6.28125 0.0013,-0.2382 0,-0.7676 0,-0.8125 0,-1.62827 -0.876136,-3.0093 -2.09375,-3.5625 l 0,-13 z"
         style="fill:#000000;fill-opacity:1;stroke:none" />
    </g>
    <g
       style="display:inline"
       id="g4351"
       transform="matrix(0.2687781,0,0,0.26877809,-1.8029244,-168.83464)">
      <path
         id="path3895"
         transform="translate(0,796.36218)"
         d="m 92.65625,163.09375 c -0.04525,0.26145 -0.0625,2.62897 -0.0625,2.90625 0,1.90011 1.124719,3.51699 2.625,3.9375 l 0,8.5 1.5625,0 0,-8.5 c 1.500283,-0.42051 2.625,-2.03739 2.625,-3.9375 0,-0.27728 -0.01723,-2.6448 -0.0625,-2.90625 l -6.6875,0 z"
         style="fill:#000000;fill-opacity:1;stroke:none"
         inkscape:connector-curvature="0" />
      <path
         sodipodi:nodetypes="sssss"
         inkscape:connector-curvature="0"
         id="path3899"
         d="m 122.53098,954.28313 c 0,2.50566 -11.87833,5.60044 -26.530982,5.60044 -14.652655,0 -26.53098,-3.09478 -26.53098,-5.60044 0,-2.50566 11.878325,-4.26237 26.53098,-4.26237 14.652652,0 26.530982,1.75671 26.530982,4.26237 z"
         style="fill:#4d4d4d;fill-opacity:1;stroke:#000000;stroke-width:3.72053981;stroke-linejoin:round;stroke-miterlimit:4;stroke-opacity:1;stroke-dasharray:none;stroke-dashoffset:0" />
      <path
         sodipodi:nodetypes="sssss"
         inkscape:connector-curvature="0"
         id="path4333"
         d="m 116.53098,954.20977 c 0,1.93902 -9.04944,3.70461 -20.388393,3.70461 -11.338945,0 -20.673569,-1.76559 -20.673569,-3.70461 0,-1.93896 9.192035,-4.87836 20.53098,-4.87836 11.338952,0 20.530982,2.9394 20.530982,4.87836 z"
         style="fill:#000000;fill-opacity:0.25342467;stroke:none;filter:url(#filter4347)" />
      <path
         style="fill:#4d4d4d;fill-opacity:1;stroke:#000000;stroke-width:3.72053981;stroke-linejoin:round;stroke-miterlimit:4;stroke-opacity:1;stroke-dasharray:none;stroke-dashoffset:0"
         d="m 122.53098,948.52021 c 0,2.50566 -11.87833,3.55879 -26.530982,3.55879 -14.652655,0 -26.53098,-1.05313 -26.53098,-3.55879 0,-2.50566 11.878325,-6.30402 26.53098,-6.30402 14.652652,0 26.530982,3.79836 26.530982,6.30402 z"
         id="path3901"
         inkscape:connector-curvature="0"
         sodipodi:nodetypes="sssss" />
      <path
         style="fill:#000000;fill-opacity:1;stroke:none"
         d="m 95.605432,936.32847 0,4.53742 c -0.424986,0.19309 -0.730786,0.67511 -0.730786,1.24343 0,0.0157 -4.54e-4,0.20043 0,0.28359 -0.62653,0.45264 -1.047096,1.26295 -1.047096,2.19236 0,0.17703 -0.68334,1.04377 -0.654436,1.2107 1.88332,0.46733 3.766639,0.46897 5.649959,0 0.0289,-0.16693 -0.654436,-1.03367 -0.654436,-1.2107 0,-0.92941 -0.420566,-1.73972 -1.047096,-2.19236 4.53e-4,-0.0831 0,-0.26792 0,-0.28359 0,-0.56832 -0.3058,-1.05034 -0.730786,-1.24343 l 0,-4.53742 z"
         id="path3903"
         inkscape:connector-curvature="0"
         sodipodi:nodetypes="ccscsccscsccc" />
    </g>
    <g
       style="display:inline"
       id="g4283"
       transform="matrix(0.09760276,0,0,0.09760275,74.35037,42.82712)">
      <path
         sodipodi:nodetypes="ssccss"
         inkscape:connector-curvature="0"
         style="fill:#000000;fill-opacity:1;stroke:none"
         d="m -351.19758,467.8716 c 4.29539,0 7.78007,-4.15033 7.78007,-9.22658 0,-0.6346 -0.0528,-6.05768 -0.15637,-6.65605 l -15.2474,0 c -0.10356,0.59837 -0.15637,6.02145 -0.15637,6.65605 0,5.07625 3.48469,9.22658 7.78007,9.22658 z"
         id="path4218" />
      <rect
         transform="scale(-1,-1)"
         style="fill:#000000;fill-opacity:1;stroke:none"
         id="rect4220"
         width="3.8737676"
         height="51.496052"
         x="349.53888"
         y="-510.24997" />
      <path
         sodipodi:nodetypes="sssss"
         inkscape:connector-curvature="0"
         id="path4224"
         d="m -277.33917,463.70732 c -1.37551,7.04587 -35.35527,3.48654 -76.55827,-4.55716 -41.20301,-8.04371 -74.02652,-17.52582 -72.65102,-24.57169 1.3755,-7.04586 36.86229,-11.20607 78.0653,-3.16236 41.203,8.0437 72.51949,25.24535 71.14399,32.29121 z"
         style="fill:#4d4d4d;fill-opacity:1;stroke:#000000;stroke-width:10.2456131;stroke-linejoin:round;stroke-miterlimit:4;stroke-opacity:1;stroke-dasharray:none;stroke-dashoffset:0" />
      <path
         style="fill:#6b6b6b;fill-opacity:1;stroke:none;filter:url(#filter4279)"
         d="m -308.05821,452.93151 c -0.80913,4.14464 -20.79726,2.05092 -45.0344,-2.68068 -24.23715,-4.73164 -43.54515,-10.30934 -42.73604,-14.45401 0.80913,-4.14462 21.68376,-6.59182 45.92091,-1.8602 24.23713,4.73162 42.65865,14.85022 41.84953,18.99489 z"
         id="path4253"
         inkscape:connector-curvature="0"
         sodipodi:nodetypes="sssss" />
      <path
         sodipodi:nodetypes="ccscsccscsccc"
         inkscape:connector-curvature="0"
         id="path4226"
         d="m -351.76436,415.39845 0,13 c -1.21761,0.5532 -2.09375,1.93423 -2.09375,3.5625 0,0.0449 -10e-4,0.57424 0,0.8125 -1.79505,1.29686 -3,2.63483 -3,5.29765 0,0.5072 -1.95781,2.99048 -1.875,3.46875 5.39583,1.33893 10.79167,3.01575 16.1875,1.67212 0.0828,-0.47827 -1.875,-3.65007 -1.875,-4.15727 0,-2.66282 -1.20495,-4.98439 -3,-6.28125 0.001,-0.2382 0,-0.7676 0,-0.8125 0,-1.62827 -0.87614,-3.0093 -2.09375,-3.5625 l 0,-13 z"
         style="fill:#000000;fill-opacity:1;stroke:none" />
    </g>
    <g
       style="display:inline"
       id="g4322"
       transform="matrix(0.06652039,0,0,0.06652039,60.305775,34.8762)">
      <path
         sodipodi:nodetypes="cccccccccccccccccccc"
         inkscape:connector-curvature="0"
         id="path4202"
         d="m -764.79821,464.05159 c -2.45455,0.40909 -52.91035,54.86281 -52.91035,54.86281 l -7.0196,1.06923 c -21.56322,20.7261 -19.54618,15.99302 -19.28586,17.907 l 0,76.70642 -16.82736,1.09615 0,6.60072 42.39826,9.87669 c 9.03726,0.22411 17.39618,-1.58679 23.64365,-9.73203 l -0.68056,-22.05378 c -11.31584,1.35536 -16.69403,7.10038 -34.34133,3.53126 l 0.30555,-54.59132 c 17.38953,6.24758 19.64788,-0.8455 24.2176,-5.90951 l -0.81818,53.77273 10.78419,-20.68099 0,-48.6372 c -3.90088,-3.14129 -4.9692,-7.5799 -12.42056,-8.5909 l 28.63637,-31.9091 19.63636,-20.45454 z"
         style="fill:#b3b3b3;fill-opacity:1;stroke:#000000;stroke-width:15.03298092px;stroke-linecap:butt;stroke-linejoin:miter;stroke-opacity:1" />
      <path
         sodipodi:nodetypes="ccsacaacaccc"
         inkscape:connector-curvature="0"
         id="path4204"
         d="m -829.51581,580.78093 17.50471,19.61009 c 2.63731,1.8977 4.12487,5.69913 7.08234,7.13765 15.53308,7.55533 35.51113,12.93913 51.76686,22.3821 9.80282,5.69447 15.85032,8.1039 27.1894,20.43128 6.54945,9.89286 18.85063,8.00991 28.2652,5.98227 6.45859,-1.39101 16.14376,-5.11754 15.98199,-11.72225 -0.24232,-9.89295 -6.50717,-11.1874 -24.76977,-16.36525 0,0 -16.62096,-7.26812 -24.54861,-11.64855 -19.72168,-10.89724 -57.03478,-36.28063 -57.03478,-36.28063 -14.3883,-3.6324 -32.40285,-9.42944 -41.43734,-17.69137 z"
         style="fill:#000000;fill-opacity:1;stroke:#000000;stroke-width:15.03298092px;stroke-linecap:butt;stroke-linejoin:miter;stroke-opacity:1" />
      <path
         sodipodi:nodetypes="ccccc"
         inkscape:connector-curvature="0"
         id="path4206"
         d="m -776.99692,458.32461 -10.34872,11.49858 c 1.98866,13.42824 9.58408,18.90083 19.65211,20.90651 l 13.06657,-12.33484 c -0.70631,-12.38056 -10.5446,-21.24505 -22.36996,-20.07025 z"
         style="fill:#000000;stroke:#000000;stroke-width:15.03298092px;stroke-linecap:butt;stroke-linejoin:miter;stroke-opacity:1" />
    </g>
    <g
       style="display:inline"
       transform="matrix(0.44567727,0,0,0.44567725,-30.097189,-368.36092)"
       id="g4025">
      <g
         id="g4027"
         transform="translate(26.176573,11.760489)">
        <path
           sodipodi:nodetypes="ccssscccscc"
           inkscape:connector-curvature="0"
           id="path4029"
           transform="translate(0,796.36218)"
           d="M 111.46875,172.96875 108.65625,173 c 1.7075,0.59555 2.71875,1.32512 2.71875,2.09375 0,2.07734 -7.25515,3.75 -16.21875,3.75 -8.963599,0 -16.25,-1.67266 -16.25,-3.75 0,-0.64445 0.705122,-1.2823 1.9375,-1.8125 l -1.96875,0.0312 0,11.09375 c 0.254801,3.50948 7.603796,6.3125 16.40625,6.3125 8.80246,0 15.9327,-2.80302 16.1875,-6.3125 z"
           style="fill:#b3b3b3;fill-opacity:1;stroke:#000000;stroke-width:1.7454344;stroke-opacity:1" />
        <path
           transform="matrix(2.0087803,0,0,0.34915554,165.33794,931.65544)"
           d="m -26.793708,113.60664 c 0,5.94962 -3.617335,10.77273 -8.079545,10.77273 -4.462209,0 -8.079545,-4.82311 -8.079545,-10.77273 0,-5.94961 3.617336,-10.77272 8.079545,-10.77272 4.46221,0 8.079545,4.82311 8.079545,10.77272 z"
           sodipodi:ry="10.772727"
           sodipodi:rx="8.079545"
           sodipodi:cy="113.60664"
           sodipodi:cx="-34.873253"
           id="path4031"
           style="fill:#ffffff;fill-opacity:1;stroke:#000000;stroke-width:2.29740453;stroke-opacity:1"
           sodipodi:type="arc" />
        <path
           sodipodi:type="arc"
           style="fill:#b3b3b3;fill-opacity:1;stroke:#000000;stroke-width:2.29740453;stroke-opacity:1"
           id="path4033"
           sodipodi:cx="-34.873253"
           sodipodi:cy="113.60664"
           sodipodi:rx="8.079545"
           sodipodi:ry="10.772727"
           d="m -26.793708,113.60664 c 0,5.94962 -3.617335,10.77273 -8.079545,10.77273 -4.462209,0 -8.079545,-4.82311 -8.079545,-10.77273 0,-5.94961 3.617336,-10.77272 8.079545,-10.77272 4.46221,0 8.079545,4.82311 8.079545,10.77272 z"
           transform="matrix(2.0087803,0,0,0.34915554,165.33794,929.65544)" />
      </g>
      <path
         style="fill:#000000;fill-opacity:1;stroke:none"
         d="m 119.03223,987.12259 c 0,1.66104 1.06828,2.99118 2.375,2.99118 1.30672,0 2.34375,-1.33014 2.34375,-2.99118 l -4.71875,0 z"
         id="path4035"
         inkscape:connector-curvature="0" />
      <path
         inkscape:connector-curvature="0"
         id="path4037"
         d="m 119.03223,998.84371 c 0,-1.50769 1.06828,-2.71503 2.375,-2.71503 1.30672,0 2.34375,1.20734 2.34375,2.71503 l -4.71875,0 z"
         style="fill:#000000;fill-opacity:1;stroke:none" />
      <rect
         style="fill:#000000;fill-opacity:1;stroke:none"
         id="rect4039"
         width="0.90261465"
         height="6.7696095"
         x="120.94029"
         y="989.67517" />
      <path
         inkscape:connector-curvature="0"
         id="path4041"
         d="m 130.92177,986.11671 c 0,1.66104 1.17874,1.99706 2.48546,1.99706 1.30672,0 2.34375,-1.33014 2.34375,-2.99118 z"
         style="fill:#000000;fill-opacity:1;stroke:none"
         sodipodi:nodetypes="cscc" />
      <path
         style="fill:#000000;fill-opacity:1;stroke:none"
         d="m 131.25315,997.45123 c 0,-1.50769 0.84736,-3.32255 2.15408,-3.32255 1.30672,0 2.34375,0.10276 2.34375,1.61045 z"
         id="path4043"
         inkscape:connector-curvature="0"
         sodipodi:nodetypes="cscc" />
      <rect
         y="987.67517"
         x="132.94029"
         height="6.7696095"
         width="0.90261465"
         id="rect4045"
         style="fill:#000000;fill-opacity:1;stroke:none" />
      <path
         inkscape:connector-curvature="0"
         id="path4047"
         d="m 107.03223,985.12259 c 0,1.66104 1.06828,2.99118 2.375,2.99118 1.30672,0 2.06761,-0.17034 2.06761,-1.83138 z"
         style="fill:#000000;fill-opacity:1;stroke:none"
         sodipodi:nodetypes="cscc" />
      <path
         style="fill:#000000;fill-opacity:1;stroke:none"
         d="m 107.47406,995.79436 c 0,-1.50769 0.62645,-1.66568 1.93317,-1.66568 1.30672,0 2.01238,1.92531 2.01238,3.433 z"
         id="path4049"
         inkscape:connector-curvature="0"
         sodipodi:nodetypes="cscc" />
      <rect
         y="987.67517"
         x="108.94029"
         height="6.7696095"
         width="0.90261465"
         id="rect4051"
         style="fill:#000000;fill-opacity:1;stroke:none" />
    </g>
    <g
       style="display:inline"
       id="g4148"
       transform="matrix(0.06351162,0,0,0.06351161,-17.561073,16.29935)">
      <path
         sodipodi:nodetypes="ccccccccccc"
         transform="translate(0,796.36218)"
         inkscape:connector-curvature="0"
         id="path4142"
         d="m 843.35414,79.995657 1.4619,57.445863 -12.05475,26.88955 -0.95093,17.37601 -2.27132,6.95778 8.48159,-0.81484 -2,-5.79589 0,-17.21981 12.46217,-27.80022 0.12134,-36.12683 z"
         style="fill:#000000;stroke:#0000ff;stroke-width:15.74515533px;stroke-linecap:butt;stroke-linejoin:miter;stroke-opacity:0" />
      <path
         transform="translate(0,796.36218)"
         inkscape:connector-curvature="0"
         id="path4144"
         d="m 888.8003,115.72034 -0.36248,14.49919 -1.99364,5.25596 7.79332,-0.18124 -2.35612,-4.71224 0.18124,-15.76787 z"
         style="fill:#000000;stroke:#0000ff;stroke-width:15.74515533px;stroke-linecap:butt;stroke-linejoin:miter;stroke-opacity:0" />
      <path
         sodipodi:nodetypes="cccccccccccc"
         transform="translate(0,796.36218)"
         inkscape:connector-curvature="0"
         id="path4146"
         d="m 964.7398,106.11463 0.65817,36.79169 9.81717,24.28615 0.96716,18.48646 -1.81239,7.79332 8.69951,-0.9062 -2.7186,-6.88712 -0.42345,-19.75514 -10.36725,-23.74243 0.2544,-44.403762 -5.61844,0.906199 z"
         style="fill:#000000;stroke:#0000ff;stroke-width:15.74515533px;stroke-linecap:butt;stroke-linejoin:miter;stroke-opacity:0" />
      <g
         transform="matrix(4.0019119,0,0,4.0019119,527.5126,-3100.1571)"
         id="g4055">
        <path
           style="fill:#b3b3b3;fill-opacity:1;stroke:#000000;stroke-width:3.06057882;stroke-opacity:1"
           d="M 111.46875,172.96875 108.65625,173 c 1.7075,0.59555 2.71875,1.32512 2.71875,2.09375 0,2.07734 -7.25515,3.75 -16.21875,3.75 -8.963599,0 -16.25,-1.67266 -16.25,-3.75 0,-0.64445 0.705122,-1.2823 1.9375,-1.8125 l -1.96875,0.0312 0,27.73636 c 0.254801,3.50948 7.603796,6.3125 16.40625,6.3125 8.80246,0 15.9327,-2.80302 16.1875,-6.3125 z"
           transform="translate(0,796.36218)"
           id="path4057"
           inkscape:connector-curvature="0"
           sodipodi:nodetypes="ccssscccscc" />
        <path
           sodipodi:type="arc"
           style="fill:#ffffff;fill-opacity:1;stroke:#000000;stroke-width:4.02844429;stroke-opacity:1"
           id="path4059"
           sodipodi:cx="-34.873253"
           sodipodi:cy="113.60664"
           sodipodi:rx="8.079545"
           sodipodi:ry="10.772727"
           d="m -26.793708,113.60664 c 0,5.94962 -3.617335,10.77273 -8.079545,10.77273 -4.462209,0 -8.079545,-4.82311 -8.079545,-10.77273 0,-5.94961 3.617336,-10.77272 8.079545,-10.77272 4.46221,0 8.079545,4.82311 8.079545,10.77272 z"
           transform="matrix(2.0087803,0,0,0.34915554,165.33794,931.65544)" />
        <path
           transform="matrix(2.0087803,0,0,0.34915554,165.33794,929.65544)"
           d="m -26.793708,113.60664 c 0,5.94962 -3.617335,10.77273 -8.079545,10.77273 -4.462209,0 -8.079545,-4.82311 -8.079545,-10.77273 0,-5.94961 3.617336,-10.77272 8.079545,-10.77272 4.46221,0 8.079545,4.82311 8.079545,10.77272 z"
           sodipodi:ry="10.772727"
           sodipodi:rx="8.079545"
           sodipodi:cy="113.60664"
           sodipodi:cx="-34.873253"
           id="path4061"
           style="fill:#b3b3b3;fill-opacity:1;stroke:#000000;stroke-width:4.02844429;stroke-opacity:1"
           sodipodi:type="arc" />
      </g>
      <path
         id="rect4067"
         d="m 906.81689,838.48828 3.47106,0 0,37.20036 -3.47106,0 z"
         style="fill:#000000;fill-opacity:1;stroke:none"
         inkscape:connector-curvature="0" />
      <path
         id="path4094"
         d="m 822.02087,35.22617 c 0,3.469881 -2.81289,6.282776 -6.28277,6.282776 -3.46988,0 -6.28278,-2.812895 -6.28278,-6.282776 0,-3.469882 2.8129,-6.282777 6.28278,-6.282777 3.46988,0 6.28277,2.812895 6.28277,6.282777 z"
         style="fill:#000000;fill-opacity:1;stroke:none"
         transform="matrix(1,0,0,0.88946421,92.814322,803.56754)"
         inkscape:connector-curvature="0" />
      <path
         id="path4096"
         d="m 822.02087,35.22617 c 0,3.469881 -2.81289,6.282776 -6.28277,6.282776 -3.46988,0 -6.28278,-2.812895 -6.28278,-6.282776 0,-3.469882 2.8129,-6.282777 6.28278,-6.282777 3.46988,0 6.28277,2.812895 6.28277,6.282777 z"
         style="fill:#000000;fill-opacity:1;stroke:none"
         transform="matrix(1,0,0,0.88946421,92.814322,847.94451)"
         inkscape:connector-curvature="0" />
      <path
         id="rect4079"
         d="m 860.67029,827.78931 3.47105,0 0,34.27975 -3.47105,0 z"
         style="fill:#000000;fill-opacity:1;stroke:none"
         inkscape:connector-curvature="0" />
      <path
         inkscape:connector-curvature="0"
         id="path4102"
         d="m 868.52469,826.06539 c -0.64536,2.76984 -3.90804,4.37694 -7.28741,3.58956 -3.37936,-0.78738 -5.59571,-3.67107 -4.95035,-6.44091 0.64536,-2.76984 3.90805,-4.37693 7.28742,-3.58956 3.37936,0.78738 5.5957,3.67108 4.95034,6.44091 z"
         style="fill:#000000;fill-opacity:1;stroke:none" />
      <path
         inkscape:connector-curvature="0"
         id="path4104"
         d="m 868.65181,865.89734 c -0.30724,2.82739 -3.35274,4.81555 -6.80231,4.4407 -3.44957,-0.37486 -5.99694,-2.97079 -5.6897,-5.79817 0.30725,-2.82738 3.35276,-4.81555 6.80233,-4.44069 3.44957,0.37485 5.99693,2.97078 5.68968,5.79816 z"
         style="fill:#000000;fill-opacity:1;stroke:none" />
      <path
         id="rect4073"
         d="m 952.96356,827.78931 3.47105,0 0,34.27975 -3.47105,0 z"
         style="fill:#000000;fill-opacity:1;stroke:none"
         inkscape:connector-curvature="0" />
      <path
         inkscape:connector-curvature="0"
         id="path4100"
         d="m 960.91774,864.32332 c 0.40527,2.815 -2.05037,5.49785 -5.48484,5.9923 -3.43447,0.49446 -6.5472,-1.38672 -6.95247,-4.20173 -0.40527,-2.815 2.05038,-5.49785 5.48485,-5.9923 3.43447,-0.49445 6.54719,1.38673 6.95246,4.20173 z"
         style="fill:#000000;fill-opacity:1;stroke:none" />
      <path
         inkscape:connector-curvature="0"
         id="path4106"
         d="m 960.93051,825.44138 c -0.36289,2.82078 -3.44697,4.74856 -6.88849,4.30581 -3.44151,-0.44274 -5.93724,-3.08835 -5.57436,-5.90913 0.36289,-2.82078 3.44698,-4.74856 6.8885,-4.30582 3.44151,0.44275 5.93723,3.08836 5.57435,5.90914 z"
         style="fill:#000000;fill-opacity:1;stroke:none" />
    </g>
    <g
       style="display:inline"
       transform="matrix(0.2078898,0,0,0.20788979,9.549469,-141.11964)"
       id="g6608">
      <path
         style="fill:#cccccc;fill-opacity:1;stroke:#000000;stroke-width:4.81023836px;stroke-linecap:butt;stroke-linejoin:miter;stroke-opacity:1"
         d="m 206.58926,1027.9254 10.05866,-22.4908 c 3.68386,-1.6178 4.27976,0.47 4.74678,2.7125 l -5.87697,14.6924 8.81545,-20.0043 c 2.04154,-1.5264 3.79404,-1.6654 4.74679,2.0343 l -7.91131,20.1174 7.45923,-17.0659 c 2.76541,-1.384 4.16215,-0.2795 4.52075,2.7125 l -6.78112,17.2919 5.65093,-12.0931 c 2.34679,-1.17 4.25403,-1.1313 4.85981,2.4864 0,0 -1.82287,7.1183 -6.6506,16.1135 -1.24918,2.3275 -4.49984,9.1696 -5.98558,10.6332 -1.99848,1.9687 -4.99422,3.0816 -7.79829,3.1645 -4.53984,0.1341 -9.6217,-1.2318 -12.90604,-4.3689 -2.39045,-2.2833 -3.46534,-4.3922 -3.60709,-9.2378 -0.14175,-4.8457 5.74373,-18.4102 5.74373,-18.4102 2.38095,-0.434 4.0745,0.018 3.84264,3.2776 z"
         id="path6610"
         inkscape:connector-curvature="0"
         sodipodi:nodetypes="ccccccccccccssaazccc" />
      <rect
         style="fill:#cccccc;fill-opacity:1;stroke:#000000;stroke-width:4.81023836;stroke-linejoin:round;stroke-miterlimit:4;stroke-opacity:1;stroke-dasharray:none;stroke-dashoffset:0"
         id="rect6612"
         width="4.1042805"
         height="10.178616"
         x="550.5509"
         y="856.15704"
         transform="matrix(0.94173136,0.33636595,-0.33636595,0.94173136,0,0)" />
      <rect
         y="1000.9108"
         x="-173.61078"
         height="10.178615"
         width="4.10428"
         id="rect6614"
         style="fill:#cccccc;fill-opacity:1;stroke:#000000;stroke-width:4.81023836;stroke-linejoin:round;stroke-miterlimit:4;stroke-opacity:1;stroke-dasharray:none;stroke-dashoffset:0"
         transform="matrix(0.92664424,-0.37593944,0.37593944,0.92664424,0,0)" />
      <rect
         style="fill:#cccccc;fill-opacity:1;stroke:#000000;stroke-width:4.81023836;stroke-linejoin:round;stroke-miterlimit:4;stroke-opacity:1;stroke-dasharray:none;stroke-dashoffset:0"
         id="rect6616"
         width="4.10428"
         height="10.178615"
         x="-348.95444"
         y="957.32782"
         transform="matrix(0.85093837,-0.52526554,0.52526554,0.85093837,0,0)" />
      <rect
         y="413.20056"
         x="940.51868"
         height="10.178615"
         width="4.1042805"
         id="rect6618"
         style="fill:#cccccc;fill-opacity:1;stroke:#000000;stroke-width:4.81023836;stroke-linejoin:round;stroke-miterlimit:4;stroke-opacity:1;stroke-dasharray:none;stroke-dashoffset:0"
         transform="matrix(0.60656413,0.79503456,-0.79503456,0.60656413,0,0)" />
      <rect
         style="fill:#cccccc;fill-opacity:1;stroke:#000000;stroke-width:4.81023836;stroke-linejoin:round;stroke-miterlimit:4;stroke-opacity:1;stroke-dasharray:none;stroke-dashoffset:0"
         id="rect6620"
         width="4.10428"
         height="10.178615"
         x="1038.995"
         y="16.286411"
         transform="matrix(0.25292769,0.96748518,-0.96748518,0.25292769,0,0)" />
    </g>
    <path
       transform="translate(0,-860.36218)"
       style="fill:#000000;fill-opacity:1;stroke:#000000;stroke-width:0.99999988;stroke-linejoin:round;stroke-miterlimit:4;stroke-opacity:1;stroke-dasharray:none;stroke-dashoffset:0;display:inline"
       d="m 37.119017,958.17985 -3.301607,3.3016 2.88076,2.88077 -2.88076,2.88075 3.301607,3.30163 2.880755,-2.88078 2.880758,2.88078 3.301608,-3.30163 -2.880763,-2.88075 2.880763,-2.88077 -3.301608,-3.3016 -2.880758,2.88075 -2.880755,-2.88075 z"
       id="rect3102"
       inkscape:connector-curvature="0" />
    <path
       transform="translate(0,-860.36218)"
       style="fill:#000000;fill-opacity:1;stroke:#000000;stroke-width:0.99999988;stroke-linejoin:round;stroke-miterlimit:4;stroke-opacity:1;stroke-dasharray:none;stroke-dashoffset:0;display:inline"
       d="m 54.49613,958.31465 0,1.20704 c -0.29787,0.0924 -0.581225,0.21123 -0.85276,0.35429 l -0.852755,-0.85276 -2.12983,2.1257 0.856875,0.85688 c -0.143155,0.27167 -0.26596,0.55472 -0.358405,0.85277 l -1.207037,0 0,3.0073 1.207037,0 c 0.09226,0.2974 0.211515,0.58565 0.35428,0.85685 l -0.85275,0.85275 2.12983,2.12573 0.852755,-0.8528 c 0.27153,0.1431 0.5549,0.2619 0.85276,0.3543 l 0,1.2071 3.007295,0 0,-1.2071 c 0.297875,-0.092 0.58533,-0.2112 0.856875,-0.3543 l 0.852755,0.8528 2.129825,-2.12573 -0.85687,-0.85685 c 0.14229,-0.2706 0.26226,-0.5561 0.354285,-0.85275 l 1.207035,0 0,-3.0073 -1.207035,0 c -0.09239,-0.29785 -0.211245,-0.58125 -0.354285,-0.85277 l 0.85687,-0.85688 -2.129825,-2.1257 -0.852755,0.85276 c -0.271555,-0.14306 -0.558985,-0.26189 -0.856875,-0.35429 l 0,-1.20704 -3.007295,0 z m 1.503645,3.6994 c 1.29767,0 2.352285,1.05047 2.352285,2.34818 0,1.29765 -1.054615,2.34815 -2.352285,2.34815 -1.29767,0 -2.348165,-1.0505 -2.348165,-2.34815 0,-1.29771 1.050495,-2.34818 2.348165,-2.34818 z"
       id="rect3109"
       inkscape:connector-curvature="0" />
  </g>
</svg>
