<?xml version="1.0" encoding="UTF-8" standalone="no"?>
<!-- Created with Inkscape (http://www.inkscape.org/) -->

<svg
   xmlns:dc="http://purl.org/dc/elements/1.1/"
   xmlns:cc="http://creativecommons.org/ns#"
   xmlns:rdf="http://www.w3.org/1999/02/22-rdf-syntax-ns#"
   xmlns:svg="http://www.w3.org/2000/svg"
   xmlns="http://www.w3.org/2000/svg"
   xmlns:xlink="http://www.w3.org/1999/xlink"
   xmlns:sodipodi="http://sodipodi.sourceforge.net/DTD/sodipodi-0.dtd"
   xmlns:inkscape="http://www.inkscape.org/namespaces/inkscape"
   width="128"
   height="64"
   id="svg2"
   version="1.1"
   inkscape:version="0.48.4 r9939"
   sodipodi:docname="tiles.svg">
  <defs
     id="defs4">
    <linearGradient
       inkscape:collect="always"
       id="linearGradient3786">
      <stop
         style="stop-color:#000000;stop-opacity:0.45977011"
         offset="0"
         id="stop3788" />
      <stop
         style="stop-color:#000000;stop-opacity:0;"
         offset="1"
         id="stop3790" />
    </linearGradient>
    <linearGradient
       id="linearGradient4061">
      <stop
         style="stop-color:#000000;stop-opacity:0.05747126"
         offset="0"
         id="stop4063" />
      <stop
         id="stop4069"
         offset="0.5705623"
         style="stop-color:#000000;stop-opacity:0.2045098" />
      <stop
         style="stop-color:#000000;stop-opacity:0;"
         offset="1"
         id="stop4065" />
    </linearGradient>
    <linearGradient
       inkscape:collect="always"
       id="linearGradient4886">
      <stop
         style="stop-color:#ffffff;stop-opacity:1"
         offset="0"
         id="stop4888" />
      <stop
         style="stop-color:#505050;stop-opacity:0.44252874"
         offset="1"
         id="stop4890" />
    </linearGradient>
    <linearGradient
       inkscape:collect="always"
       id="linearGradient3820">
      <stop
         style="stop-color:#000000;stop-opacity:1;"
         offset="0"
         id="stop3822" />
      <stop
         style="stop-color:#000000;stop-opacity:0;"
         offset="1"
         id="stop3824" />
    </linearGradient>
    <radialGradient
       inkscape:collect="always"
       xlink:href="#linearGradient3820"
       id="radialGradient3826"
       cx="112"
       cy="1004.3622"
       fx="112"
       fy="1004.3622"
       r="14.750001"
       gradientUnits="userSpaceOnUse" />
    <radialGradient
       inkscape:collect="always"
       xlink:href="#linearGradient4886"
       id="radialGradient4896"
       cx="80"
       cy="1036.3622"
       fx="80"
       fy="1036.3622"
       r="14.5"
       gradientUnits="userSpaceOnUse"
       gradientTransform="matrix(0.95626549,-0.97480635,0.98786499,0.96907574,-1020.2872,110.03324)" />
    <filter
       inkscape:collect="always"
       id="filter4095">
      <feGaussianBlur
         inkscape:collect="always"
         stdDeviation="0.2955002"
         id="feGaussianBlur4097" />
    </filter>
    <radialGradient
       inkscape:collect="always"
       xlink:href="#linearGradient3786"
       id="radialGradient3792"
       cx="77.689087"
       cy="47.841236"
       fx="77.689087"
       fy="47.841236"
       r="8.9519261"
       gradientTransform="matrix(1,0,0,0.89191003,0,5.171158)"
       gradientUnits="userSpaceOnUse" />
  </defs>
  <sodipodi:namedview
     id="base"
     pagecolor="#ffffff"
     bordercolor="#666666"
     borderopacity="1.0"
     inkscape:pageopacity="0.0"
     inkscape:pageshadow="2"
     inkscape:zoom="7.4296875"
     inkscape:cx="64"
     inkscape:cy="32"
     inkscape:document-units="px"
     inkscape:current-layer="layer1"
     showgrid="false"
     inkscape:window-width="1317"
     inkscape:window-height="744"
     inkscape:window-x="49"
     inkscape:window-y="24"
     inkscape:window-maximized="1" />
  <metadata
     id="metadata7">
    <rdf:RDF>
      <cc:Work
         rdf:about="">
        <dc:format>image/svg+xml</dc:format>
        <dc:type
           rdf:resource="http://purl.org/dc/dcmitype/StillImage" />
        <dc:title />
      </cc:Work>
    </rdf:RDF>
  </metadata>
  <g
     inkscape:groupmode="layer"
     id="layer2"
     inkscape:label="grid"
     style="display:none">
    <rect
       style="fill:#ececec;fill-opacity:1;stroke:none"
       id="rect2997"
       width="32"
       height="32"
       x="0"
       y="1020.3622"
       transform="translate(0,-988.3622)" />
    <rect
       transform="translate(0,-988.3622)"
       y="1020.3622"
       x="32"
       height="32"
       width="32"
       id="rect3018"
       style="fill:#cccccc;fill-opacity:1;stroke:none" />
    <rect
       y="31.999983"
       x="64"
       height="32"
       width="32"
       id="rect3022"
       style="fill:#ececec;fill-opacity:1;stroke:none" />
    <rect
       style="fill:#cccccc;fill-opacity:1;stroke:none"
       id="rect3024"
       width="32"
       height="32"
       x="96"
       y="31.999983" />
    <rect
       y="-2.1667483e-07"
       x="-128"
       height="32"
       width="32"
       id="rect3026"
       style="fill:#ececec;fill-opacity:1;stroke:none"
       transform="scale(-1,1)" />
    <rect
       style="fill:#cccccc;fill-opacity:1;stroke:none"
       id="rect3028"
       width="32"
       height="32"
       x="-96"
       y="-2.1667483e-07"
       transform="scale(-1,1)" />
    <rect
       style="fill:#ececec;fill-opacity:1;stroke:none"
       id="rect3030"
       width="32"
       height="32"
       x="-64"
       y="0"
       transform="scale(-1,1)" />
    <rect
       y="0"
       x="-32"
       height="32"
       width="32"
       id="rect3032"
       style="fill:#cccccc;fill-opacity:1;stroke:none"
       transform="scale(-1,1)" />
  </g>
  <g
     inkscape:label="Layer 1"
     inkscape:groupmode="layer"
     id="layer1"
     transform="translate(0,-988.3622)"
     style="display:inline">
    <rect
       ry="1"
       rx="1"
       style="fill:#ffffff;fill-opacity:1;stroke:#000000;stroke-width:0.5;stroke-linejoin:round;stroke-miterlimit:4;stroke-opacity:1;stroke-dasharray:none"
       id="rect2990"
       width="29.500002"
       height="29.500002"
       x="1.249999"
       y="1021.6122" />
    <rect
       y="1021.6122"
       x="33.25"
       height="29.500002"
       width="29.500002"
       id="rect3004"
       style="fill:#ffffff;fill-opacity:1;stroke:#000000;stroke-width:0.5;stroke-linejoin:round;stroke-miterlimit:4;stroke-opacity:1;stroke-dasharray:none"
       rx="1"
       ry="1" />
    <rect
       style="fill:#ffffff;fill-opacity:1;stroke:none"
       id="rect4905"
       width="30"
       height="30"
       x="32.46162"
       y="989.2276" />
    <path
       sodipodi:type="arc"
       style="display:inline;fill:#ffffff;fill-opacity:1;stroke:none"
       id="path3260"
       sodipodi:cx="14.003681"
       sodipodi:cy="12.099351"
       sodipodi:rx="2.4526222"
       sodipodi:ry="4.2723093"
       d="m 16.456303,12.099351 c 0,2.359531 -1.098076,4.272309 -2.452622,4.272309 -1.354546,0 -2.452622,-1.912778 -2.452622,-4.272309 0,-2.3595313 1.098076,-4.2723094 2.452622,-4.2723094 1.354546,0 2.452622,1.9127781 2.452622,4.2723094 z"
       transform="matrix(2.0386344,0,0,1.1703273,-12.548386,990.202)" />
    <g
       id="g4053"
       style="fill:#800000"
       transform="matrix(1.0714286,0,0,1.0714286,-5.7142857,-71.740157)">
      <path
         id="rect4042"
         transform="translate(0,988.3622)"
         d="m 66,2 0,8 2,0 0,-5 c 0,-0.554 0.446,-1 1,-1 l 5,0 0,-2 -8,0 z"
         style="fill:#800000;fill-opacity:1;stroke:none"
         inkscape:connector-curvature="0" />
      <path
         inkscape:connector-curvature="0"
         style="fill:#800000;fill-opacity:1;stroke:none"
         d="m 94,990.3622 -8,0 0,2 5,0 c 0.554,0 1,0.446 1,1 l 0,5 2,0 0,-8 z"
         id="path4047" />
      <path
         id="path4049"
         d="m 94,1018.3622 0,-8 -2,0 0,5 c 0,0.554 -0.446,1 -1,1 l -5,0 0,2 8,0 z"
         style="fill:#800000;fill-opacity:1;stroke:none"
         inkscape:connector-curvature="0" />
      <path
         inkscape:connector-curvature="0"
         style="fill:#800000;fill-opacity:1;stroke:none"
         d="m 66,1018.3622 8,0 0,-2 -5,0 c -0.554,0 -1,-0.446 -1,-1 l 0,-5 -2,0 0,8 z"
         id="path4051" />
    </g>
    <rect
       y="989.86218"
       x="97.5"
       height="29"
       width="29"
       id="rect3040"
       style="fill:#f2f2f2;fill-opacity:1;stroke:#000000;stroke-width:1;stroke-linejoin:round;stroke-miterlimit:4;stroke-opacity:1;stroke-dasharray:none"
       rx="1"
       ry="1" />
    <path
       sodipodi:type="arc"
       style="fill:url(#radialGradient3792);fill-opacity:1;stroke:none;filter:url(#filter4095)"
       id="path4059"
       sodipodi:cx="77.689087"
       sodipodi:cy="47.841236"
       sodipodi:rx="7.9735394"
       sodipodi:ry="6.8445425"
       d="m 85.662626,47.841236 c 0,3.780137 -3.569875,6.844543 -7.973539,6.844543 -4.403664,0 -7.973539,-3.064406 -7.973539,-6.844543 0,-3.780136 3.569875,-6.844542 7.973539,-6.844542 4.403664,0 7.973539,3.064406 7.973539,6.844542 z"
       transform="matrix(1.379563,0,0,1.6071198,4.8230102,927.4756)" />
    <rect
       ry="1"
       rx="1"
       style="fill:#ffffff;fill-opacity:1;stroke:#000000;stroke-width:0.5;stroke-linejoin:round;stroke-miterlimit:4;stroke-opacity:1;stroke-dasharray:none"
       id="rect3794"
       width="29.500002"
       height="29.500002"
       x="65.25"
       y="1021.6122" />
    <rect
       y="1021.6122"
       x="97.25"
       height="29.500002"
       width="29.500002"
       id="rect3796"
       style="fill:#ffffff;fill-opacity:1;stroke:#000000;stroke-width:0.5;stroke-linejoin:round;stroke-miterlimit:4;stroke-opacity:1;stroke-dasharray:none"
       rx="1"
       ry="1" />
    <path
       sodipodi:type="arc"
       style="fill:#000000;fill-opacity:1;stroke:none"
       id="path3030"
       sodipodi:cx="40.149944"
       sodipodi:cy="58.990078"
       sodipodi:rx="2.7519295"
       sodipodi:ry="1.7640573"
       d="m 42.901874,58.990078 a 2.7519295,1.7640573 0 1 1 -5.503859,0 2.7519295,1.7640573 0 1 1 5.503859,0 z"
       transform="matrix(0.7267628,0,0,1.13375,60.820515,958.4822)" />
    <path
       transform="matrix(0.7267628,0,0,1.13375,40.820515,958.4822)"
       d="m 42.901874,58.990078 a 2.7519295,1.7640573 0 1 1 -5.503859,0 2.7519295,1.7640573 0 1 1 5.503859,0 z"
       sodipodi:ry="1.7640573"
       sodipodi:rx="2.7519295"
       sodipodi:cy="58.990078"
       sodipodi:cx="40.149944"
       id="path3036"
       style="fill:#000000;fill-opacity:1;stroke:none"
       sodipodi:type="arc" />
    <path
       transform="matrix(0.7267628,0,0,1.13375,18.820515,958.4822)"
       d="m 42.901874,58.990078 a 2.7519295,1.7640573 0 1 1 -5.503859,0 2.7519295,1.7640573 0 1 1 5.503859,0 z"
       sodipodi:ry="1.7640573"
       sodipodi:rx="2.7519295"
       sodipodi:cy="58.990078"
       sodipodi:cx="40.149944"
       id="path3051"
       style="fill:#000000;fill-opacity:1;stroke:none"
       sodipodi:type="arc" />
    <g
       id="g3053"
       transform="translate(32.000001,1.0000183)">
      <path
         transform="matrix(0.7267628,0,0,1.13375,60.820514,957.48218)"
         d="m 42.901874,58.990078 c 0,0.974262 -1.232081,1.764057 -2.75193,1.764057 -1.519848,0 -2.751929,-0.789795 -2.751929,-1.764057 0,-0.974262 1.232081,-1.764057 2.751929,-1.764057 1.519849,0 2.75193,0.789795 2.75193,1.764057 z"
         sodipodi:ry="1.7640573"
         sodipodi:rx="2.7519295"
         sodipodi:cy="58.990078"
         sodipodi:cx="40.149944"
         id="path3055"
         style="fill:#000000;fill-opacity:1;stroke:none"
         sodipodi:type="arc" />
      <path
         sodipodi:type="arc"
         style="fill:#000000;fill-opacity:1;stroke:none"
         id="path3057"
         sodipodi:cx="40.149944"
         sodipodi:cy="58.990078"
         sodipodi:rx="2.7519295"
         sodipodi:ry="1.7640573"
         d="m 42.901874,58.990078 c 0,0.974262 -1.232081,1.764057 -2.75193,1.764057 -1.519848,0 -2.751929,-0.789795 -2.751929,-1.764057 0,-0.974262 1.232081,-1.764057 2.751929,-1.764057 1.519849,0 2.75193,0.789795 2.75193,1.764057 z"
         transform="matrix(0.7267628,0,0,1.13375,40.820514,957.48218)" />
      <path
         transform="matrix(0.7267628,0,0,1.13375,50.820514,957.48218)"
         d="m 42.901874,58.990078 c 0,0.974262 -1.232081,1.764057 -2.75193,1.764057 -1.519848,0 -2.751929,-0.789795 -2.751929,-1.764057 0,-0.974262 1.232081,-1.764057 2.751929,-1.764057 1.519849,0 2.75193,0.789795 2.75193,1.764057 z"
         sodipodi:ry="1.7640573"
         sodipodi:rx="2.7519295"
         sodipodi:cy="58.990078"
         sodipodi:cx="40.149944"
         id="path3059"
         style="fill:#000000;fill-opacity:1;stroke:none"
         sodipodi:type="arc" />
    </g>
  </g>
</svg>
