<?xml version="1.0" encoding="UTF-8" standalone="no"?>
<!-- Created with Inkscape (http://www.inkscape.org/) -->

<svg
   xmlns:dc="http://purl.org/dc/elements/1.1/"
   xmlns:cc="http://creativecommons.org/ns#"
   xmlns:rdf="http://www.w3.org/1999/02/22-rdf-syntax-ns#"
   xmlns:svg="http://www.w3.org/2000/svg"
   xmlns="http://www.w3.org/2000/svg"
   xmlns:xlink="http://www.w3.org/1999/xlink"
   xmlns:sodipodi="http://sodipodi.sourceforge.net/DTD/sodipodi-0.dtd"
   xmlns:inkscape="http://www.inkscape.org/namespaces/inkscape"
   width="128"
   height="64"
   id="svg2"
   version="1.1"
   inkscape:version="0.48.4 r9939"
   sodipodi:docname="tiles.svg">
  <defs
     id="defs4">
    <linearGradient
       inkscape:collect="always"
       id="linearGradient3820">
      <stop
         style="stop-color:#000000;stop-opacity:1;"
         offset="0"
         id="stop3822" />
      <stop
         style="stop-color:#000000;stop-opacity:0;"
         offset="1"
         id="stop3824" />
    </linearGradient>
    <radialGradient
       inkscape:collect="always"
       xlink:href="#linearGradient3820"
       id="radialGradient3826"
       cx="112"
       cy="1004.3622"
       fx="112"
       fy="1004.3622"
       r="14.750001"
       gradientUnits="userSpaceOnUse" />
  </defs>
  <sodipodi:namedview
     id="base"
     pagecolor="#ffffff"
     bordercolor="#666666"
     borderopacity="1.0"
     inkscape:pageopacity="0.0"
     inkscape:pageshadow="2"
     inkscape:zoom="19.066665"
     inkscape:cx="41.889861"
     inkscape:cy="16.000016"
     inkscape:document-units="px"
     inkscape:current-layer="layer1"
     showgrid="false"
     inkscape:window-width="1317"
     inkscape:window-height="744"
     inkscape:window-x="49"
     inkscape:window-y="24"
     inkscape:window-maximized="1" />
  <metadata
     id="metadata7">
    <rdf:RDF>
      <cc:Work
         rdf:about="">
        <dc:format>image/svg+xml</dc:format>
        <dc:type
           rdf:resource="http://purl.org/dc/dcmitype/StillImage" />
        <dc:title />
      </cc:Work>
    </rdf:RDF>
  </metadata>
  <g
     inkscape:groupmode="layer"
     id="layer2"
     inkscape:label="grid"
     style="display:none"
     sodipodi:insensitive="true">
    <rect
       style="fill:#ececec;fill-opacity:1;stroke:none"
       id="rect2997"
       width="32"
       height="32"
       x="0"
       y="1020.3622"
       transform="translate(0,-988.3622)" />
    <rect
       transform="translate(0,-988.3622)"
       y="1020.3622"
       x="32"
       height="32"
       width="32"
       id="rect3018"
       style="fill:#cccccc;fill-opacity:1;stroke:none" />
    <rect
       y="31.999983"
       x="64"
       height="32"
       width="32"
       id="rect3022"
       style="fill:#ececec;fill-opacity:1;stroke:none" />
    <rect
       style="fill:#cccccc;fill-opacity:1;stroke:none"
       id="rect3024"
       width="32"
       height="32"
       x="96"
       y="31.999983" />
    <rect
       y="-2.1667483e-07"
       x="-128"
       height="32"
       width="32"
       id="rect3026"
       style="fill:#ececec;fill-opacity:1;stroke:none"
       transform="scale(-1,1)" />
    <rect
       style="fill:#cccccc;fill-opacity:1;stroke:none"
       id="rect3028"
       width="32"
       height="32"
       x="-96"
       y="-2.1667483e-07"
       transform="scale(-1,1)" />
    <rect
       style="fill:#ececec;fill-opacity:1;stroke:none"
       id="rect3030"
       width="32"
       height="32"
       x="-64"
       y="0"
       transform="scale(-1,1)" />
    <rect
       y="0"
       x="-32"
       height="32"
       width="32"
       id="rect3032"
       style="fill:#cccccc;fill-opacity:1;stroke:none"
       transform="scale(-1,1)" />
  </g>
  <g
     inkscape:label="Layer 1"
     inkscape:groupmode="layer"
     id="layer1"
     transform="translate(0,-988.3622)"
     style="display:inline">
    <rect
       ry="1"
       rx="1"
       style="fill:#ffffff;fill-opacity:1;stroke:#000000;stroke-width:0.5;stroke-linejoin:round;stroke-miterlimit:4;stroke-opacity:1;stroke-dasharray:none"
       id="rect2990"
       width="29.500002"
       height="29.500002"
       x="1.249999"
       y="1021.6122" />
    <path
       sodipodi:type="arc"
       style="fill:#ffffff;fill-opacity:1;stroke:none"
       id="path2986"
       sodipodi:cx="-84.216217"
       sodipodi:cy="10.702703"
       sodipodi:rx="11.135135"
       sodipodi:ry="6.3783784"
       d="m -73.081082,10.702703 c 0,3.522682 -4.98537,6.378379 -11.135135,6.378379 -6.149765,0 -11.135135,-2.855697 -11.135135,-6.378379 0,-3.5226806 4.98537,-6.3783779 11.135135,-6.3783779 6.149765,0 11.135135,2.8556973 11.135135,6.3783779 z"
       transform="matrix(0.62864095,0,0,1.0974578,68.941763,992.6164)" />
    <rect
       y="989.36218"
       x="33.129772"
       height="30"
       width="30"
       id="rect2992"
       style="fill:#ffffff;fill-opacity:1;stroke:none" />
    <g
       id="g3034"
       transform="translate(-32,-2.1667483e-7)">
      <path
         inkscape:connector-curvature="0"
         id="rect2988"
         d="m 96.000003,988.3622 0,8 1.6,0 0,-6.4 6.399987,0 0,-1.6 -7.999987,0 z"
         style="fill:#ffffff;fill-opacity:1;stroke:none" />
      <path
         style="fill:#ffffff;fill-opacity:1;stroke:none"
         d="m 128,988.3622 -8,0 0,1.6 6.40003,0 0,6.4 1.59997,0 0,-8 z"
         id="path2996"
         inkscape:connector-curvature="0" />
      <path
         inkscape:connector-curvature="0"
         id="path2998"
         d="m 128,1020.3622 0,-8 -1.6,0 0,6.4 -6.39999,0 0,1.6 7.99999,0 z"
         style="fill:#ffffff;fill-opacity:1;stroke:none" />
      <path
         style="fill:#ffffff;fill-opacity:1;stroke:none"
         d="m 96,1020.3622 8,0 0,-1.6 -6.400001,0 0,-6.4 -1.599999,0 0,8 z"
         id="path3000"
         inkscape:connector-curvature="0" />
    </g>
    <rect
       y="1021.8622"
       x="65.5"
       height="29"
       width="29"
       id="rect3040"
       style="fill:#f2f2f2;fill-opacity:1;stroke:#000000;stroke-width:1;stroke-linejoin:round;stroke-miterlimit:4;stroke-opacity:1;stroke-dasharray:none"
       rx="1"
       ry="1" />
    <rect
       y="1021.6122"
       x="33.25"
       height="29.500002"
       width="29.500002"
       id="rect3004"
       style="fill:#ffffff;fill-opacity:1;stroke:#000000;stroke-width:0.5;stroke-linejoin:round;stroke-miterlimit:4;stroke-opacity:1;stroke-dasharray:none"
       rx="1"
       ry="1" />
    <path
       sodipodi:type="arc"
       style="fill:#000000;fill-opacity:1;stroke:none"
       id="path3007"
       sodipodi:cx="54.781471"
       sodipodi:cy="40.687061"
       sodipodi:rx="2.1765735"
       sodipodi:ry="2.2290211"
       d="m 56.958045,40.687061 a 2.1765735,2.2290211 0 1 1 -4.353147,0 2.1765735,2.2290211 0 1 1 4.353147,0 z"
       transform="matrix(0.91887546,0,0,0.89725486,8.662652,988.85552)" />
  </g>
</svg>
