<?xml version="1.0" encoding="UTF-8" standalone="no"?>
<!-- Created with Inkscape (http://www.inkscape.org/) -->

<svg
   xmlns:dc="http://purl.org/dc/elements/1.1/"
   xmlns:cc="http://creativecommons.org/ns#"
   xmlns:rdf="http://www.w3.org/1999/02/22-rdf-syntax-ns#"
   xmlns:svg="http://www.w3.org/2000/svg"
   xmlns="http://www.w3.org/2000/svg"
   xmlns:xlink="http://www.w3.org/1999/xlink"
   xmlns:sodipodi="http://sodipodi.sourceforge.net/DTD/sodipodi-0.dtd"
   xmlns:inkscape="http://www.inkscape.org/namespaces/inkscape"
   width="128"
   height="64"
   id="svg2"
   version="1.1"
   inkscape:version="0.48.4 r9939"
   sodipodi:docname="tiles.svg">
  <defs
     id="defs4">
    <linearGradient
       id="linearGradient4061">
      <stop
         style="stop-color:#000000;stop-opacity:0.05747126"
         offset="0"
         id="stop4063" />
      <stop
         id="stop4069"
         offset="0.5705623"
         style="stop-color:#000000;stop-opacity:0.2045098" />
      <stop
         style="stop-color:#000000;stop-opacity:0;"
         offset="1"
         id="stop4065" />
    </linearGradient>
    <linearGradient
       inkscape:collect="always"
       id="linearGradient4886">
      <stop
         style="stop-color:#ffffff;stop-opacity:1"
         offset="0"
         id="stop4888" />
      <stop
         style="stop-color:#505050;stop-opacity:0.44252874"
         offset="1"
         id="stop4890" />
    </linearGradient>
    <linearGradient
       inkscape:collect="always"
       id="linearGradient3820">
      <stop
         style="stop-color:#000000;stop-opacity:1;"
         offset="0"
         id="stop3822" />
      <stop
         style="stop-color:#000000;stop-opacity:0;"
         offset="1"
         id="stop3824" />
    </linearGradient>
    <radialGradient
       inkscape:collect="always"
       xlink:href="#linearGradient3820"
       id="radialGradient3826"
       cx="112"
       cy="1004.3622"
       fx="112"
       fy="1004.3622"
       r="14.750001"
       gradientUnits="userSpaceOnUse" />
    <radialGradient
       inkscape:collect="always"
       xlink:href="#linearGradient4886"
       id="radialGradient4896"
       cx="80"
       cy="1036.3622"
       fx="80"
       fy="1036.3622"
       r="14.5"
       gradientUnits="userSpaceOnUse"
       gradientTransform="matrix(0.95626549,-0.97480635,0.98786499,0.96907574,-1020.2872,110.03324)" />
    <radialGradient
       inkscape:collect="always"
       xlink:href="#linearGradient4061"
       id="radialGradient4067"
       cx="77.689087"
       cy="47.841236"
       fx="77.689087"
       fy="47.841236"
       r="7.9735394"
       gradientTransform="matrix(1.0351209,0.01904788,-0.02136285,0.85544178,-1.7064828,5.4360316)"
       gradientUnits="userSpaceOnUse" />
    <filter
       inkscape:collect="always"
       id="filter4095">
      <feGaussianBlur
         inkscape:collect="always"
         stdDeviation="0.2955002"
         id="feGaussianBlur4097" />
    </filter>
  </defs>
  <sodipodi:namedview
     id="base"
     pagecolor="#ffffff"
     bordercolor="#666666"
     borderopacity="1.0"
     inkscape:pageopacity="0.0"
     inkscape:pageshadow="2"
     inkscape:zoom="7.0859375"
     inkscape:cx="64"
     inkscape:cy="32"
     inkscape:document-units="px"
     inkscape:current-layer="layer1"
     showgrid="false"
     inkscape:window-width="1317"
     inkscape:window-height="744"
     inkscape:window-x="49"
     inkscape:window-y="24"
     inkscape:window-maximized="1" />
  <metadata
     id="metadata7">
    <rdf:RDF>
      <cc:Work
         rdf:about="">
        <dc:format>image/svg+xml</dc:format>
        <dc:type
           rdf:resource="http://purl.org/dc/dcmitype/StillImage" />
        <dc:title />
      </cc:Work>
    </rdf:RDF>
  </metadata>
  <g
     inkscape:groupmode="layer"
     id="layer2"
     inkscape:label="grid"
     style="display:none">
    <rect
       style="fill:#ececec;fill-opacity:1;stroke:none"
       id="rect2997"
       width="32"
       height="32"
       x="0"
       y="1020.3622"
       transform="translate(0,-988.3622)" />
    <rect
       transform="translate(0,-988.3622)"
       y="1020.3622"
       x="32"
       height="32"
       width="32"
       id="rect3018"
       style="fill:#cccccc;fill-opacity:1;stroke:none" />
    <rect
       y="31.999983"
       x="64"
       height="32"
       width="32"
       id="rect3022"
       style="fill:#ececec;fill-opacity:1;stroke:none" />
    <rect
       style="fill:#cccccc;fill-opacity:1;stroke:none"
       id="rect3024"
       width="32"
       height="32"
       x="96"
       y="31.999983" />
    <rect
       y="-2.1667483e-07"
       x="-128"
       height="32"
       width="32"
       id="rect3026"
       style="fill:#ececec;fill-opacity:1;stroke:none"
       transform="scale(-1,1)" />
    <rect
       style="fill:#cccccc;fill-opacity:1;stroke:none"
       id="rect3028"
       width="32"
       height="32"
       x="-96"
       y="-2.1667483e-07"
       transform="scale(-1,1)" />
    <rect
       style="fill:#ececec;fill-opacity:1;stroke:none"
       id="rect3030"
       width="32"
       height="32"
       x="-64"
       y="0"
       transform="scale(-1,1)" />
    <rect
       y="0"
       x="-32"
       height="32"
       width="32"
       id="rect3032"
       style="fill:#cccccc;fill-opacity:1;stroke:none"
       transform="scale(-1,1)" />
  </g>
  <g
     inkscape:label="Layer 1"
     inkscape:groupmode="layer"
     id="layer1"
     transform="translate(0,-988.3622)"
     style="display:inline">
    <rect
       ry="1"
       rx="1"
       style="fill:#ffffff;fill-opacity:1;stroke:#000000;stroke-width:0.5;stroke-linejoin:round;stroke-miterlimit:4;stroke-opacity:1;stroke-dasharray:none"
       id="rect2990"
       width="29.500002"
       height="29.500002"
       x="1.249999"
       y="1021.6122" />
    <rect
       y="1021.8622"
       x="65.5"
       height="29"
       width="29"
       id="rect3040"
       style="fill:#f2f2f2;fill-opacity:1;stroke:#000000;stroke-width:1;stroke-linejoin:round;stroke-miterlimit:4;stroke-opacity:1;stroke-dasharray:none"
       rx="1"
       ry="1" />
    <rect
       y="1021.6122"
       x="33.25"
       height="29.500002"
       width="29.500002"
       id="rect3004"
       style="fill:#ffffff;fill-opacity:1;stroke:#000000;stroke-width:0.5;stroke-linejoin:round;stroke-miterlimit:4;stroke-opacity:1;stroke-dasharray:none"
       rx="1"
       ry="1" />
    <path
       sodipodi:type="arc"
       style="fill:#000000;fill-opacity:1;stroke:none"
       id="path3007"
       sodipodi:cx="54.781471"
       sodipodi:cy="40.687061"
       sodipodi:rx="2.1765735"
       sodipodi:ry="2.2290211"
       d="m 56.958045,40.687061 c 0,1.231055 -0.974485,2.229021 -2.176574,2.229021 -1.202088,0 -2.176573,-0.997966 -2.176573,-2.229021 0,-1.231054 0.974485,-2.229021 2.176573,-2.229021 1.202089,0 2.176574,0.997967 2.176574,2.229021 z"
       transform="matrix(1.2273091,0,0,1.1984314,-8.2338015,976.60154)" />
    <rect
       style="fill:#ffffff;fill-opacity:1;stroke:none"
       id="rect4905"
       width="30"
       height="30"
       x="33"
       y="989.36218" />
    <path
       sodipodi:type="arc"
       style="display:inline;fill:#ffffff;fill-opacity:1;stroke:none"
       id="path3260"
       sodipodi:cx="14.003681"
       sodipodi:cy="12.099351"
       sodipodi:rx="2.4526222"
       sodipodi:ry="4.2723093"
       d="m 16.456303,12.099351 a 2.4526222,4.2723093 0 1 1 -4.905244,0 2.4526222,4.2723093 0 1 1 4.905244,0 z"
       transform="matrix(2.0386344,0,0,1.1703273,-12.548386,990.202)" />
    <g
       id="g4053"
       style="fill:#800000"
       transform="matrix(1.0714286,0,0,1.0714286,-5.7142857,-71.740157)">
      <path
         id="rect4042"
         transform="translate(0,988.3622)"
         d="m 66,2 0,8 2,0 0,-5 c 0,-0.554 0.446,-1 1,-1 l 5,0 0,-2 -8,0 z"
         style="fill:#800000;fill-opacity:1;stroke:none"
         inkscape:connector-curvature="0" />
      <path
         inkscape:connector-curvature="0"
         style="fill:#800000;fill-opacity:1;stroke:none"
         d="m 94,990.3622 -8,0 0,2 5,0 c 0.554,0 1,0.446 1,1 l 0,5 2,0 0,-8 z"
         id="path4047" />
      <path
         id="path4049"
         d="m 94,1018.3622 0,-8 -2,0 0,5 c 0,0.554 -0.446,1 -1,1 l -5,0 0,2 8,0 z"
         style="fill:#800000;fill-opacity:1;stroke:none"
         inkscape:connector-curvature="0" />
      <path
         inkscape:connector-curvature="0"
         style="fill:#800000;fill-opacity:1;stroke:none"
         d="m 66,1018.3622 8,0 0,-2 -5,0 c -0.554,0 -1,-0.446 -1,-1 l 0,-5 -2,0 0,8 z"
         id="path4051" />
    </g>
    <path
       sodipodi:type="arc"
       style="fill:url(#radialGradient4067);fill-opacity:1;stroke:none;filter:url(#filter4095)"
       id="path4059"
       sodipodi:cx="77.689087"
       sodipodi:cy="47.841236"
       sodipodi:rx="7.9735394"
       sodipodi:ry="6.8445425"
       d="m 85.662626,47.841236 a 7.9735394,6.8445425 0 1 1 -15.947078,0 7.9735394,6.8445425 0 1 1 15.947078,0 z"
       transform="matrix(1.379563,0,0,1.6071198,-27.176995,959.47559)" />
  </g>
</svg>
